<?xml version="1.0" standalone="no"?>
<!DOCTYPE svg PUBLIC "-//W3C//DTD SVG 1.1//EN" "http://www.w3.org/Graphics/SVG/1.1/DTD/svg11.dtd">
<svg xmlns="http://www.w3.org/2000/svg">
<metadata>Generated by Fontastic.me</metadata>
<defs>
<font id="fa-icons" horiz-adv-x="512">
<font-face font-family="fa-icons" units-per-em="512" ascent="480" descent="-32"/>
<missing-glyph horiz-adv-x="512" />

<glyph glyph-name="sort-numeric-up" unicode="&#97;" d="M398 459l0-171-34 0 0 138-1 0-39-27 0 31 40 29z m-34-398c-37 0-55 21-57 41l32 0c2-7 11-15 25-15 26 0 37 27 36 60l-2 0c-4-13-18-24-40-24-29 0-55 20-55 56 0 37 27 59 63 59 35 0 66-20 66-86 0-60-23-91-69-91z m2 87c16 0 29 11 29 31 0 21-12 33-30 33-16 0-29-12-29-32 0-21 13-32 30-32m-222-68c0-9-7-16-16-16-9 0-16 7-16 16l0 313-37-36c-6-7-16-7-22 0-7 6-7 16 0 22l64 64 0 1c6 6 16 5 22-1l64-64c7-6 7-16 0-22-6-7-16-7-22 0l-37 36z"/>
<glyph glyph-name="facebook" unicode="&#101;" d="M504 256c0 137-111 248-248 248-137 0-248-111-248-248 0-124 91-226 209-245l0 173-63 0 0 72 63 0 0 55c0 62 37 96 94 96 27 0 55-5 55-5l0-61-31 0c-31 0-40-19-40-38l0-47 69 0-11-72-58 0 0-173c118 19 209 121 209 245z"/>
<glyph glyph-name="hat-santa" unicode="&#104;" d="M120 351l-69-172 307 0-50 113c-1 2-1 3-1 5 0 5 5 10 11 10l0 0c2 0 3 0 4 0l44-14c2 3 3 5 6 7 0 12 4 23 13 32 1 2 3 4 5 5l-42 51c-26 30-64 47-103 47-55 0-105-33-125-84z m347-36c-1 10-9 18-19 18-10 0-18-8-19-18-8 7-19 6-26-1-7-7-8-18-1-26-10-1-18-9-18-19 0-10 8-19 18-19-7-8-6-19 1-26 7-8 18-8 26-1 1-10 9-18 19-18 10 0 18 8 19 18 8-7 19-7 26 1 7 7 8 18 1 26 10 0 18 9 18 19 0 10-8 18-18 19 7 7 6 19-1 26-7 7-18 8-26 1z m-467-200c0-21 17-38 38-38l333 0c21 0 39 17 39 38 0 21-18 39-39 39l-333 0c-21 0-38-18-38-39z"/>
<glyph glyph-name="heart-circle" unicode="&#105;" d="M256 0c141 0 256 115 256 256 0 141-115 256-256 256-141 0-256-115-256-256 0-141 115-256 256-256z m-121 225c-15 15-23 35-23 56l0 3c0 42 34 76 76 76 23 0 44-10 59-28l9-12 9 12c15 18 36 28 59 28 42 0 76-34 76-76l0-3c0-21-8-41-23-56l-25-25-96-96-96 96z"/>
<glyph glyph-name="instagram" unicode="&#106;" d="M256 371c-63 0-115-51-115-115 0-64 52-115 115-115 64 0 115 51 115 115 0 64-51 115-115 115z m0-190c-41 0-75 34-75 75 0 41 34 75 75 75 41 0 75-34 75-75 0-41-34-75-75-75z m147 195c0-15-12-27-27-27-15 0-27 12-27 27 0 14 12 26 27 26 15 0 27-12 27-26z m76-28c-2 36-10 68-37 94-26 27-58 35-93 37-37 2-148 2-185 0-36-2-68-10-94-37-27-26-35-58-36-93-3-37-3-148 0-185 1-36 9-68 36-94 26-26 58-35 94-36 37-3 148-3 185 0 35 1 67 9 93 36 27 26 35 58 37 94 2 37 2 147 0 184z m-48-224c-8-20-23-35-43-43-29-11-99-9-132-9-32 0-103-2-132 9-20 8-35 23-43 43-11 29-9 99-9 132 0 33-2 103 9 132 8 20 23 35 43 43 30 11 100 9 132 9 33 0 103 2 132-9 20-8 35-23 43-43 12-29 9-99 9-132 0-33 3-103-9-132z"/>
<glyph glyph-name="random" unicode="&#110;" d="M404 478c12 5 26 2 35-7l64-64c6-6 9-14 9-23 0-8-3-17-9-23l-64-64c-9-9-23-11-35-6-12 5-20 16-20 29l0 32-32 0c-10 0-20-5-26-13l-42-56-40 53 31 42c18 24 47 38 77 38l32 0 0 32c0 13 8 25 20 30z m-240-249l40-53-31-42c-18-24-47-38-77-38l-64 0c-18 0-32 14-32 32 0 18 14 32 32 32l64 0c10 0 20 5 26 13z m275-188c-10-9-23-12-35-7-12 5-20 17-20 30l0 32-32 0c-30 0-59 14-77 38l-153 205c-6 8-16 13-26 13l-64 0c-18 0-32 14-32 32 0 18 14 32 32 32l64 0c30 0 59-14 77-38l153-205c6-8 16-13 26-13l32 0 0 32c0 13 8 25 20 30 12 5 26 2 35-7l64-64c6-6 9-14 9-23 0-8-3-17-9-23l-64-64z"/>
<glyph glyph-name="youtube" unicode="&#109;" d="M489 373c-6 21-22 38-43 43-38 11-190 11-190 11 0 0-152 0-190-11-21-5-37-22-43-43-10-38-10-117-10-117 0 0 0-80 10-118 6-21 22-37 43-42 38-11 190-11 190-11 0 0 152 0 190 11 21 5 37 21 43 42 10 38 10 118 10 118 0 0 0 79-10 117z m-283-190l0 145 127-72z"/>
<glyph glyph-name="twitter" unicode="&#111;" d="M389 464l71 0-154-176 181-240-142 0-111 145-127-145-71 0 165 188-174 228 145 0 101-133z m-25-374l40 0-253 334-42 0z"/>
<glyph glyph-name="tiktok" unicode="&#112;" d="M480 302c-44 0-87 14-123 39l0-178c0-68-42-129-105-153-64-23-135-5-180 46-44 51-53 124-20 184 32 60 98 93 165 84l0-90c-31 9-64-2-83-28-19-26-19-62 0-88 20-26 53-36 84-26 30 10 51 38 51 71l0 349 88 0c0-7 1-15 2-22 6-33 26-62 54-80 20-14 43-21 67-21z"/>
<glyph glyph-name="list-ol" unicode="&#116;" d="M24 456c0 13 11 24 24 24l32 0c13 0 24-11 24-24l0-120 16 0c13 0 24-11 24-24 0-13-11-24-24-24l-80 0c-13 0-24 11-24 24 0 13 11 24 24 24l16 0 0 96-8 0c-13 0-24 11-24 24z m63-285c-7 7-19 7-24-1l-11-16c-8-11-23-13-34-6-11 8-13 23-6 34l12 16c23 33 72 35 99 4 21-24 21-60-1-84l-35-38 33 0c13 0 24-11 24-24 0-13-11-24-24-24l-88 0c-9 0-18 6-22 14-4 9-2 19 4 26l72 78c6 6 6 15 1 21z m137 277l256 0c18 0 32-14 32-32 0-18-14-32-32-32l-256 0c-18 0-32 14-32 32 0 18 14 32 32 32z m0-160l256 0c18 0 32-14 32-32 0-18-14-32-32-32l-256 0c-18 0-32 14-32 32 0 18 14 32 32 32z m0-160l256 0c18 0 32-14 32-32 0-18-14-32-32-32l-256 0c-18 0-32 14-32 32 0 18 14 32 32 32z"/>
<glyph glyph-name="hashtag" unicode="&#108;" d="M221 479c13-2 21-15 19-28l-15-75 111 0 16 85c3 13 16 21 29 18 13-2 21-15 18-28l-14-75 71 0c13 0 24-11 24-24 0-13-11-24-24-24l-81 0-29-144 78 0c13 0 24-11 24-24 0-13-11-24-24-24l-87 0-17-85c-3-13-16-21-29-19-13 3-21 16-18 29l15 75-111 0-17-85c-3-13-16-21-29-19-13 3-21 16-18 29l15 75-72 0c-13 0-24 11-24 24 0 13 11 24 24 24l81 0 29 144-78 0c-13 0-24 11-24 24 0 13 11 24 24 24l88 0 16 85c3 13 16 21 29 18z m-6-151l-29-144 111 0 29 144z"/>
<glyph glyph-name="dharmachakra" unicode="&#103;" d="M256 512c9 0 16-7 16-16l0-33c45-3 87-21 119-49l23 23c7 6 17 6 23 0 6-6 6-16 0-23l-23-23c28-32 46-74 49-119l33 0c9 0 16-7 16-16 0-9-7-16-16-16l-33 0c-3-45-21-87-49-119l23-23c6-7 6-17 0-23-6-6-16-6-23 0l-23 23c-32-28-74-46-119-49l0-33c0-9-7-16-16-16-9 0-16 7-16 16l0 33c-45 3-87 21-119 49l-23-23c-7-6-17-6-23 0-6 6-6 16 0 23l23 23c-28 32-46 74-49 119l-33 0c-9 0-16 7-16 16 0 9 7 16 16 16l33 0c3 45 21 87 49 119l-23 23c-6 7-6 17 0 23 6 6 16 6 23 0l23-23c32 28 74 46 119 49l0 33c0 9 7 16 16 16z m-135-143c-22-27-37-60-40-97l80 0c3 14 8 28 17 40z m79-35c12 8 25 14 40 17l0 80c-37-3-70-18-97-40l57-57z m11-33c-12-12-19-28-19-45l0-1c0-3 0-6 1-10 2-13 9-25 18-34 0 0 0 0 0 0 0 0 0-1 0-1 12-11 28-18 45-18l1 0c3 0 6 0 10 1 13 2 25 8 34 17 0 0 0 1 0 1 0 0 1 0 1 0 14 14 21 34 17 55-2 14-8 26-17 35-1 0-1 0-1 0 0 0 0 0 0 0-12 12-27 19-44 19l-1 0c-4 0-7 0-11-1-13-2-25-9-34-18 0 0 0 0 0 0 0 0 0 0-1 0z m-33-101c-8 12-14 25-17 40l-80 0c3-37 18-70 40-97z m-35-79c27-22 60-37 97-40l0 80c-14 3-28 8-40 17l-57-57z m169 57c-12-8-25-14-40-17l0-80c37 3 70 18 97 40z m79-35c22 27 37 60 40 97l-80 0c-3-14-8-28-17-40l57-57z m-57 169c8-12 14-25 17-40l80 0c-3 37-18 70-40 97z m35 79c-27 22-60 37-97 40l0-80c14-3 28-8 40-17z"/>
<glyph glyph-name="coin" unicode="&#113;" d="M91 230c-42 23-59 51-59 74 0 23 17 50 59 74 40 23 99 38 165 38 66 0 125-15 165-38 42-24 59-51 59-74 0-23-17-51-59-74-40-23-99-38-165-38-66 0-125 15-165 38z m149-70l0-64c-22 1-44 3-64 7l0 64c20-4 42-6 64-7z m-144 32c15-7 31-13 48-18l0-64c-18 5-34 10-48 17z m-32 17l0-64c-23 17-32 34-32 47l0 42c9-9 20-18 32-25z m208-113l0 64c22 1 44 3 64 7l0-64c-20-4-41-6-64-7z m176 113c12 8 23 16 32 25l0-42c0-13-8-30-32-47l0 64z m-32-17l0-65c-14-7-30-12-48-17l0 64c17 5 33 11 48 18z m-160 256c-141 0-256-65-256-144l0-112c0-71 115-128 256-128 141 0 256 57 256 128l0 112c0 79-115 144-256 144z"/>
<glyph glyph-name="dropdown-arrow" unicode="&#99;" d="M256 147l205 205-45 45-160-160-137 138-23 22-45-45z"/>
<glyph glyph-name="bolt" unicode="&#118;" d="M96 481c0 17 14 31 31 31l163 0c17 0 30-13 30-30 0-3 0-6-1-9l-41-121 142 0c15 0 28-13 28-28 0-6-2-11-5-16l-203-297c-5-7-12-11-21-11-16 0-28 15-24 31l49 193-149 0c-17 0-31 14-31 31 0 1 0 3 0 4z m32-1c0-1 0-2 0-3l-32-221 168 0c5 0 10-2 13-6 3-4 4-9 3-14l-44-174 177 258-157 0c-5 0-10 2-13 7-3 4-4 9-2 14l46 139z"/>
<glyph glyph-name="check-circle" unicode="&#119;" d="M256 0c141 0 256 115 256 256 0 141-115 256-256 256-141 0-256-115-256-256 0-141 115-256 256-256z m113 303l-128-128c-9-9-25-9-34 0l-64 64c-9 9-9 25 0 34 10 9 25 9 34 0l47-47 111 111c9 9 25 9 34 0 9-9 9-25 0-34z"/>
<glyph glyph-name="chevron-right" unicode="&#120;" d="M413 256l-237-237-45 45 192 192-170 169-22 23 45 45z"/>
<glyph glyph-name="cog" unicode="&#121;" d="M256 512c17 0 34-2 50-5 8-1 22-6 29-20 2-4 4-8 5-12l9-38c2-6 11-12 17-10l38 11c4 1 8 2 12 2 16 1 27-9 33-15 22-25 39-55 49-87 3-7 6-21-2-35-2-4-5-7-8-10l-29-27c-4-4-4-16 0-20l29-27c3-3 6-7 8-10 8-14 5-28 2-36-10-31-27-61-49-86-6-6-17-16-33-15-4 0-8 1-12 2l-38 11c-6 2-15-4-17-10l-9-38c-1-5-3-9-5-12-7-14-21-19-29-20-16-3-33-5-50-5-17 0-34 2-50 5-8 1-22 6-29 20-2 4-4 7-5 12l-9 38c-1 6-11 12-17 10l-38-11c-4-1-8-2-12-2-16-1-27 9-32 15-22 25-40 55-50 87-3 7-6 21 2 35 3 4 5 7 8 10l29 27c4 4 4 16 0 20l-29 27c-3 3-6 6-8 10-8 14-5 28-2 35 10 32 27 61 50 87 5 6 16 16 32 15 4 0 8-1 12-2l38-11c6-2 16 4 17 10l9 38c1 4 3 8 5 12 8 14 21 19 29 20 16 3 33 5 50 5z m-38-51l-8-36c-8-32-46-53-78-44l-34 10c-17-19-30-42-38-66l26-25c24-22 24-66 0-89l-26-24c8-24 21-47 38-66l35 10c31 9 69-12 77-45l8-35c25-4 52-4 76 0l9 35c7 33 45 54 77 45l34-10c17 19 30 42 38 66l-26 24c-24 23-24 67 0 89l26 25c-8 24-21 47-38 66l-34-10c-32-10-70 12-77 44l-9 36c-24 4-51 4-76 0z m-10-205c0-27 21-48 48-48 27 0 48 21 48 48 0 27-21 48-48 48-27 0-48-21-48-48z m48-96c-53 0-96 43-96 96 0 53 43 96 96 96 53 0 96-43 96-96 0-53-43-96-96-96z"/>
<glyph glyph-name="chevron-down" unicode="&#65;" d="M256 83l237 237-45 45-192-192-169 170-23 22-45-45z"/>
<glyph glyph-name="gift" unicode="&#117;" d="M232 468c-16 27-46 44-78 44l-2 0c-49 0-88-39-88-88 0-14 4-28 10-40l-26 0c-26 0-48-22-48-48l0-64c0-21 13-39 32-45l0-163c0-35 29-64 64-64l320 0c35 0 64 29 64 64l0 163c19 6 32 24 32 45l0 64c0 26-21 48-48 48l-26 0c7 12 10 26 10 40 0 49-39 88-88 88l-2 0c-32 0-62-17-78-44l-24-42-24 41z m232-132l0-64-176 0 0 64z m-240 0l0-64-176 0 0 64z m0-112l0-176-128 0c-9 0-16 7-16 16l0 160z m64-176l0 176 144 0 0-160c0-9-7-16-16-16z m72 336l-73 0 35 59c7 13 21 21 36 21l2 0c22 0 40-18 40-40 0-22-18-40-40-40z m-136 0l-72 0c-22 0-40 18-40 40 0 22 18 40 40 40l2 0c15 0 29-8 37-21l34-59z"/>
<glyph glyph-name="linkedin" unicode="&#107;" d="M448 480l-384 0c-18 0-32-15-32-32l0-384c0-18 14-32 32-32l384 0c18 0 32 14 32 32l0 384c0 17-14 32-32 32z m-281-384l-66 0 0 214 67 0 0-214z m-33 243c-21 0-38 17-38 38 0 22 17 39 38 39 21 0 39-17 39-39 0-21-17-38-39-38z m282-243l-66 0 0 104c0 25-1 57-35 57-34 0-39-27-39-55l0-106-67 0 0 214 64 0 0-29 1 0c9 16 30 34 63 34 67 0 79-44 79-102z"/>
<glyph glyph-name="palette" unicode="&#67;" d="M464 254c0-3-1-5-4-8-4-3-10-6-18-6l-98 0c-53 0-96-43-96-96 0-7 1-13 2-20 3-16 10-31 15-40 0-2 1-3 1-5 5-11 6-15 6-17 0-5-2-9-4-12-1-1-1-1-2-1 0-1-1-1-1-1-3 0-6 0-9 0-115 0-208 93-208 208 0 115 93 208 208 208 115 0 208-93 208-208 0-1 0-1 0-2z m48-1c0 1 0 2 0 3 0 141-115 256-256 256-141 0-256-115-256-256 0-141 115-256 256-256 4 0 7 0 11 0 31 1 53 30 53 62 0 15-6 28-12 42-4 10-9 20-11 30-1 3-1 7-1 10 0 26 22 48 48 48l98 0c37 0 70 25 70 61z m-352 3c0 18-14 32-32 32-18 0-32-14-32-32 0-18 14-32 32-32 18 0 32 14 32 32z m0 64c18 0 32 14 32 32 0 18-14 32-32 32-18 0-32-14-32-32 0-18 14-32 32-32z m128 64c0 18-14 32-32 32-18 0-32-14-32-32 0-18 14-32 32-32 18 0 32 14 32 32z m64-64c18 0 32 14 32 32 0 18-14 32-32 32-18 0-32-14-32-32 0-18 14-32 32-32z"/>
<glyph glyph-name="play" unicode="&#68;" d="M137 473c-15 9-33 9-48 1-16-9-25-25-25-42l0-352c0-17 9-33 25-42 15-8 33-8 48 1l288 176c14 9 23 24 23 41 0 17-9 32-23 41z"/>
<glyph glyph-name="star" unicode="&#70;" d="M256 484c8 0 16-5 19-12l61-126 136-20c8-1 15-7 17-15 3-7 1-16-5-21l-99-98 24-139c1-8-2-16-9-21-6-4-15-5-22-1l-122 65-122-65c-7-4-16-3-22 2-7 4-10 12-9 20l23 139-98 98c-6 5-8 14-6 21 3 8 10 14 18 15l136 20 61 126c3 7 11 12 19 12z m0-71l-47-96c-3-6-9-11-16-12l-105-15 76-76c5-5 8-12 6-18l-18-107 94 50c6 3 14 3 20 0l93-50-17 106c-2 7 1 14 6 19l76 76-105 15c-7 1-13 6-16 12z"/>
<glyph glyph-name="lock-alt" unicode="&#71;" d="M256 448c44 0 80-36 80-80l0-48-160 0 0 48c0 44 36 80 80 80z m-144-80l0-48-16 0c-35 0-64-29-64-64l0-192c0-35 29-64 64-64l320 0c35 0 64 29 64 64l0 192c0 35-29 64-64 64l-16 0 0 48c0 79-64 144-144 144-79 0-144-65-144-144z m176-176l0-64c0-18-14-32-32-32-18 0-32 14-32 32l0 64c0 18 14 32 32 32 18 0 32-14 32-32z"/>
<glyph glyph-name="bullseye" unicode="&#72;" d="M464 256c0 115-93 208-208 208-115 0-208-93-208-208 0-115 93-208 208-208 115 0 208 93 208 208z m-464 0c0 141 115 256 256 256 141 0 256-115 256-256 0-141-115-256-256-256-141 0-256 115-256 256z m256-112c62 0 112 50 112 112 0 62-50 112-112 112-62 0-112-50-112-112 0-62 50-112 112-112z m0 272c88 0 160-72 160-160 0-88-72-160-160-160-88 0-160 72-160 160 0 88 72 160 160 160z m0-176c9 0 16 7 16 16 0 9-7 16-16 16-9 0-16-7-16-16 0-9 7-16 16-16z m0 80c35 0 64-29 64-64 0-35-29-64-64-64-35 0-64 29-64 64 0 35 29 64 64 64z"/>
<glyph glyph-name="calendar" unicode="&#73;" d="M144 512c9 0 16-7 16-16l0-48 192 0 0 48c0 9 7 16 16 16 9 0 16-7 16-16l0-48 32 0c35 0 64-29 64-64l0-320c0-35-29-64-64-64l-320 0c-35 0-64 29-64 64l0 320c0 35 29 64 64 64l32 0 0 48c0 9 7 16 16 16z m304-192l-384 0 0-256c0-18 14-32 32-32l320 0c18 0 32 14 32 32z m-32 96l-320 0c-18 0-32-14-32-32l0-32 384 0 0 32c0 18-14 32-32 32z"/>
<glyph glyph-name="ellipsis-h" unicode="&#74;" d="M40 256c0 31 25 56 56 56 31 0 56-25 56-56 0-31-25-56-56-56-31 0-56 25-56 56z m160 0c0 31 25 56 56 56 31 0 56-25 56-56 0-31-25-56-56-56-31 0-56 25-56 56z m216 56c31 0 56-25 56-56 0-31-25-56-56-56-31 0-56 25-56 56 0 31 25 56 56 56z"/>
<glyph glyph-name="envelope" unicode="&#75;" d="M64 400c-9 0-16-7-16-16l0-22 173-142c20-17 50-17 71 0l172 142 0 22c0 9-7 16-16 16z m-16-100l0-172c0-9 7-16 16-16l384 0c9 0 16 7 16 16l0 172-142-117c-38-31-94-31-132 0z m-48 84c0 35 29 64 64 64l384 0c35 0 64-29 64-64l0-256c0-35-29-64-64-64l-384 0c-35 0-64 29-64 64z"/>
<glyph glyph-name="eye" unicode="&#77;" d="M256 455c-72 0-129-33-171-72-42-38-70-84-83-116-3-7-3-15 0-22 13-32 41-78 83-116 42-39 99-72 171-72 72 0 129 33 171 72 42 38 70 84 83 116 3 7 3 15 0 22-13 32-41 78-83 116-42 39-99 72-171 72z m-128-199c0 71 57 128 128 128 71 0 128-57 128-128 0-71-57-128-128-128-71 0-128 57-128 128z m128 57c0-31-26-57-57-57-6 0-12 1-18 3-5 2-11-1-10-7 0-6 1-12 3-18 12-46 59-73 104-60 46 12 73 59 60 104-9 37-42 62-78 63-6 1-9-5-7-10 2-6 3-12 3-18z"/>
<glyph glyph-name="magic" unicode="&#78;" d="M209 446l-34-13c-3-1-4-3-4-6 0-3 1-6 4-7l34-12 12-34c1-2 4-4 7-4 2 0 5 2 6 4l12 34 34 12c3 1 4 4 4 7 0 3-1 5-4 6l-34 13-12 33c-1 3-4 5-6 5-3 0-6-2-7-5z m201-5l31-31-98-97-30 30z m-339-339l211 211 31-31-211-211z m309 369l-339-339c-17-17-17-44 0-60l31-31c16-17 43-17 60 0l339 339c17 17 17 44 0 60l-31 31c-16 17-43 17-60 0z m-373-92c-4-1-7-5-7-9 0-4 3-8 7-10l50-19 19-50c1-4 5-7 9-7 5 0 8 3 10 7l19 50 50 19c4 2 7 6 7 10 0 4-3 8-7 9l-50 19-19 50c-2 4-5 7-10 7-4 0-8-3-9-7l-19-50z m313-227c-4-2-7-6-7-10 0-4 3-8 7-9l50-19 19-50c1-4 5-7 9-7 4 0 8 3 10 7l19 50 50 19c4 1 7 5 7 9 0 4-3 8-7 10l-50 19-19 50c-2 4-6 7-10 7-4 0-8-3-9-7l-19-50z"/>
<glyph glyph-name="mobile" unicode="&#79;" d="M144 464c-9 0-16-7-16-16l0-384c0-9 7-16 16-16l224 0c9 0 16 7 16 16l0 384c0 9-7 16-16 16z m-64-16c0 35 29 64 64 64l224 0c35 0 64-29 64-64l0-384c0-35-29-64-64-64l-224 0c-35 0-64 29-64 64z m144-336l64 0c9 0 16-7 16-16 0-9-7-16-16-16l-64 0c-9 0-16 7-16 16 0 9 7 16 16 16z"/>
<glyph glyph-name="shield-check" unicode="&#80;" d="M73 385l183 78 183-78c6-3 9-8 9-13 0-91-38-249-186-320-4-2-8-2-12 0-148 71-185 229-186 320 0 5 3 10 9 13z m385 44l-189 80c-4 2-8 3-13 3-5 0-9-1-13-3l-189-80c-22-9-38-31-38-57 1-99 41-281 214-363 16-8 36-8 52 0 173 82 214 264 214 363 0 26-16 48-38 57z m-89-126c9 9 9 25 0 34-9 9-25 9-34 0l-111-111-47 47c-9 9-24 9-34 0-9-10-9-25 0-34l64-64c10-9 25-9 34 0z"/>
<glyph glyph-name="whatsapp" unicode="&#81;" d="M413 415c-42 42-98 65-157 65-122 0-222-100-222-222 0-39 10-77 30-111l-32-115 118 31c32-18 69-27 106-27l0 0c122 0 224 99 224 222 0 59-25 115-67 157z m-157-342c-33 0-66 9-94 26l-7 4-70-18 19 68-4 7c-19 29-29 63-29 98 0 102 83 184 185 184 49 0 96-19 130-54 35-35 57-81 57-130 0-102-85-185-187-185z m101 138c-5 3-33 17-38 18-5 2-9 3-12-2-4-6-15-18-18-22-3-4-6-4-12-2-32 17-54 30-75 66-6 10 5 10 16 31 2 3 1 7-1 9-1 3-12 31-17 42-4 10-9 9-12 9-3 0-7 0-11 0-3 0-9-1-15-7-5-5-19-19-19-46 0-27 20-54 23-57 2-4 39-60 94-84 36-15 49-17 67-14 11 2 33 13 37 26 5 13 5 25 4 27-2 2-5 4-11 6z"/>
<glyph glyph-name="stream" unicode="&#82;" d="M0 416c0 18 14 32 32 32l384 0c18 0 32-14 32-32 0-18-14-32-32-32l-384 0c-18 0-32 14-32 32z m64-160c0 18 14 32 32 32l384 0c18 0 32-14 32-32 0-18-14-32-32-32l-384 0c-18 0-32 14-32 32z m384-160c0-18-14-32-32-32l-384 0c-18 0-32 14-32 32 0 18 14 32 32 32l384 0c18 0 32-14 32-32z"/>
<glyph glyph-name="paper-plane" unicode="&#84;" d="M16 252c-23-13-20-48 4-58l140-58 0-103c0-18 15-33 33-33 9 0 19 4 25 12l62 74 124-52c19-7 41 5 44 25l64 416c2 12-4 24-14 31-10 7-23 8-34 2z m52-26l342 195-220-245 1-1z m335-139l-166 69 214 239z"/>
<glyph glyph-name="comments-alt" unicode="&#85;" d="M71 214c7 14 5 32-6 44-17 18-27 40-27 62 0 51 51 102 128 102 77 0 128-51 128-102 0-51-51-102-128-102-10 0-20 1-30 2-8 2-17 1-24-3-4-2-7-3-10-5-13-5-27-10-40-14 2 4 4 7 6 11 1 1 2 3 2 5z m-71 106c0-33 14-64 37-88-1-2-2-3-3-4-8-15-17-30-29-42-5-6-6-14-3-21 3-7 10-11 17-11 35 0 69 10 98 23 4 2 8 4 12 6 12-3 24-4 37-4 92 0 167 63 167 141 0 78-75 141-167 141-92 0-166-63-166-141z m346-243c13 0 25 1 37 3 4-1 8-3 12-5 29-13 63-24 98-24 7 0 14 5 17 12 3 7 2 15-3 21-12 12-21 26-30 41 0 2-1 3-2 4 23 25 37 55 37 89 0 75-70 137-159 140 4-12 5-25 5-38l0 0c70-6 116-54 116-102 0-23-10-44-27-62-11-12-13-30-6-45 1-1 2-3 3-5 2-3 4-7 6-10-13 3-27 8-40 14-3 2-6 3-10 5-7 4-16 5-24 3-10-2-20-3-30-3-50 0-88 21-110 50-13-4-26-7-40-9 27-47 84-79 150-79z"/>
<glyph glyph-name="plus" unicode="&#87;" d="M288 432c0 18-14 32-32 32-18 0-32-14-32-32l0-144-144 0c-18 0-32-14-32-32 0-18 14-32 32-32l144 0 0-144c0-18 14-32 32-32 18 0 32 14 32 32l0 144 144 0c18 0 32 14 32 32 0 18-14 32-32 32l-144 0z"/>
<glyph glyph-name="text" unicode="&#88;" d="M32 480l448 0 0-128-64 0 0 64-128 0 0-320 80 0 0-64-224 0 0 64 80 0 0 320-128 0 0-64-64 0z"/>
<glyph glyph-name="tablet" unicode="&#89;" d="M96 464c-9 0-16-7-16-16l0-384c0-9 7-16 16-16l320 0c9 0 16 7 16 16l0 384c0 9-7 16-16 16z m-64-16c0 35 29 64 64 64l320 0c35 0 64-29 64-64l0-384c0-35-29-64-64-64l-320 0c-35 0-64 29-64 64z m192-336l64 0c9 0 16-7 16-16 0-9-7-16-16-16l-64 0c-9 0-16 7-16 16 0 9 7 16 16 16z"/>
<glyph glyph-name="question-circle" unicode="&#90;" d="M464 256c0 115-93 208-208 208-115 0-208-93-208-208 0-115 93-208 208-208 115 0 208 93 208 208z m-464 0c0 141 115 256 256 256 141 0 256-115 256-256 0-141-115-256-256-256-141 0-256 115-256 256z m168 72c0 31 25 56 56 56l57 0c35 0 63-28 63-63 0-23-12-44-32-55l-32-18 0-32-48 0 0 59 12 7 44 26c5 2 8 7 8 13 0 8-7 15-15 15l-57 0c-4 0-8-4-8-8l0-7-48 0z m64-152l48 0 0-48-48 0z"/>
<glyph glyph-name="qrcode" unicode="&#49;" d="M224 480l-192 0 0-192 192 0z m-64-64l0-64-64 0 0 64z m64-192l-192 0 0-192 192 0z m-64-64l0-64-64 0 0 64z m128 320l0-192 192 0 0 192z m64-64l64 0 0-64-64 0z m32-352l0-32 32 0 0 32z m96 0l-32 0 0-32 32 0z m-32 160l0-32-64 0 0 32-96 0 0-192 64 0 0 96 32 0 0-32 96 0 0 128z"/>
<glyph glyph-name="link" unicode="&#50;" d="M464 247c45 45 45 118 0 163-45 45-118 45-163 0l-9-9 36-36 10 9c24 25 65 25 90 0 25-25 25-66 0-91l-91-90c-25-25-65-25-90 0-21 20-24 51-11 75 1 3 3 6 5 8l-41 31c-3-5-6-9-9-14-24-44-17-100 20-137 45-45 118-45 163 0z m-416 18c-45-45-45-118 0-163 45-45 118-45 163 0l9 9-36 36-10-9c-24-25-65-25-90 0-25 25-25 66 0 91l91 90c25 25 65 25 90 0 21-20 24-51 11-75-1-3-3-6-5-8l41-31c3 5 6 9 9 14 24 44 17 100-20 137-45 45-118 45-163 0z"/>
<glyph glyph-name="arrow-left" unicode="&#100;" d="M41 279c-12-13-12-33 0-46l160-160c13-12 33-12 46 0 12 13 12 33 0 46l-106 105 307 0c18 0 32 14 32 32 0 18-14 32-32 32l-307 0 106 105c12 13 12 33 0 46-13 12-33 12-46 0l-160-160z"/>
<glyph glyph-name="arrow-right" unicode="&#122;" d="M471 233c12 13 12 33 0 46l-160 160c-13 12-33 12-46 0-12-13-12-33 0-46l106-105-307 0c-18 0-32-14-32-32 0-18 14-32 32-32l307 0-106-105c-12-13-12-33 0-46 13-12 33-12 46 0l160 160z"/>
<glyph glyph-name="badge-check" unicode="&#86;" d="M200 430c11 20 32 34 56 34 24 0 45-14 56-34 5-10 17-15 28-11 22 6 46 1 63-16 17-17 22-41 16-63-4-11 1-23 12-28 20-11 33-32 33-56 0-24-13-45-33-56-11-5-16-17-12-28 6-21 1-46-16-63-17-17-41-22-63-16-11 4-23-1-28-11-11-20-32-34-56-34-24 0-45 14-56 34-5 10-17 15-28 11-21-6-46-1-63 16-17 17-22 41-16 63 4 11-1 23-11 28-20 11-34 32-34 56 0 24 14 45 34 56 10 5 15 17 11 28-6 22-1 46 16 63 17 17 41 22 63 16 11-4 23 1 28 11z m56 82c-36 0-68-17-88-43-33 4-68-7-93-32-25-25-36-60-32-93-26-20-43-52-43-88 0-36 17-68 43-88-4-33 7-68 32-93 25-26 60-36 93-32 20-26 52-43 88-43 36 0 68 17 88 43 33-4 68 7 93 32 26 25 36 60 32 93 26 20 43 52 43 88 0 36-17 68-43 88 4 33-7 68-32 93-25 25-60 36-93 32-20 26-52 43-88 43z m113-209c9 9 9 25 0 34-9 9-25 9-34 0l-111-111-47 47c-9 9-24 9-34 0-9-10-9-25 0-34l64-64c10-9 25-9 34 0z"/>
<glyph glyph-name="comments" unicode="&#48;" d="M166 179c92 0 167 63 167 141 0 78-75 141-167 141-92 0-166-63-166-141 0-31 12-59 32-83-3-7-7-14-12-19-4-5-7-9-10-12-2-1-3-2-4-3 0 0 0 0-1-1l0 0c-4-3-6-9-4-14 1-5 6-9 12-9 17 0 35 5 49 10 8 3 15 6 21 9 24-12 53-19 83-19z m192 141c0-90-79-158-173-166 20-59 84-103 161-103 30 0 59 7 83 19 6-3 13-6 21-9 14-5 32-10 49-10 6 0 11 4 12 9 2 5 0 11-4 14l0 1c-1 0-1 0-1 0-1 1-2 2-4 3-3 3-7 7-10 12-5 5-9 12-12 19 20 24 32 52 32 83 0 74-68 135-154 140 0-4 0-8 0-12z"/>
<glyph glyph-name="comment" unicode="&#51;" d="M124 121c13 9 29 11 44 6 27-10 56-15 88-15 125 0 208 80 208 160 0 79-83 160-208 160-125 0-208-81-208-160 0-32 12-63 36-89 8-10 13-23 12-36-2-18-6-34-12-49 17 8 31 17 40 23z m-103-41c2 3 4 5 5 8 10 17 20 39 22 63-30 34-48 76-48 121 0 115 115 208 256 208 141 0 256-93 256-208 0-115-115-208-256-208-37 0-72 6-104 18-12-9-31-21-54-31-15-6-33-12-50-16-1 0-2 0-3 0-4-1-9-2-13-2 0 0-1 0-1 0-5-1-10-1-15-1-7 0-12 4-15 10-2 6-1 13 4 17 4 4 7 9 11 14 2 2 3 4 5 7 0 0 0 0 0 0z"/>
<glyph glyph-name="file" unicode="&#52;" d="M416 64l0 256-112 0c-26 0-48 21-48 48l0 112-128 0c-18 0-32-14-32-32l0-384c0-18 14-32 32-32l256 0c18 0 32 14 32 32z m0 288c-1 3-3 5-5 7l-116 116c-2 2-4 4-7 4l0-111c0-9 7-16 16-16z m-352 96c0 35 29 64 64 64l156 0c13 0 25-5 34-14l116-116c9-9 14-21 14-34l0-284c0-35-29-64-64-64l-256 0c-35 0-64 29-64 64z"/>
<glyph glyph-name="share-alt" unicode="&#53;" d="M384 192c-23 0-43-8-60-21l-102 64c3 14 3 28 0 42l102 64c17-13 37-21 60-21 53 0 96 43 96 96 0 53-43 96-96 96-53 0-96-43-96-96 0-7 1-14 2-21l-102-64c-17 13-37 21-60 21-53 0-96-43-96-96 0-53 43-96 96-96 23 0 43 8 60 21l102-64c-1-7-2-14-2-21 0-53 43-96 96-96 53 0 96 43 96 96 0 53-43 96-96 96z"/>
<glyph glyph-name="times" unicode="&#54;" d="M407 361c12 13 12 33 0 46-13 12-33 12-46 0l-105-106-105 106c-13 12-33 12-46 0-12-13-12-33 0-46l106-105-106-105c-12-13-12-33 0-46 13-12 33-12 46 0l105 106 105-106c13-12 33-12 46 0 12 13 12 33 0 46l-106 105z"/>
<glyph glyph-name="tools" unicode="&#55;" d="M79 507c-10 7-23 7-32-2l-40-40c-9-9-9-22-2-32l80-104c4-6 12-9 19-9l54 0 109-109c-15-29-10-65 14-90l112-112c13-12 33-12 46 0l64 64c12 13 12 33 0 46l-112 112c-25 24-61 29-90 14l-109 109 0 54c0 7-3 14-9 19z m-56-372c-15-15-23-35-23-56 0-44 36-79 79-79 21 0 41 8 56 23l104 103c-9 18-13 38-12 57l-126-126c-6-6-13-9-22-9-17 0-31 14-31 31 0 8 3 16 9 22l137 137-34 34z m441 213c-1-39-23-73-54-92 1-1 2-2 3-3l32-31c41 29 67 76 67 130 0 25-6 48-16 69-4 9-16 11-23 3l-68-67c-3-3-7-5-12-5l-25 0c-9 0-16 7-16 16l0 25c0 5 2 9 5 12l68 68c7 7 6 19-4 23-21 10-44 16-69 16-57 0-108-30-136-75 5-9 8-19 8-29l0-41 16-16 0 1c0 60 48 110 108 112l-25-25c-12-12-19-29-19-46l0-25c0-35 29-64 64-64l25 0c17 0 34 7 46 19z"/>
<glyph glyph-name="trash-alt" unicode="&#56;" d="M203 460l-19-28 145 0-19 28c-2 3-4 4-7 4l-94 0c-3 0-5-1-7-4z m147 27l36-55 70 0c13 0 24-11 24-24 0-13-11-24-24-24l-8 0 0-304c0-44-36-80-80-80l-224 0c-44 0-80 36-80 80l0 304-8 0c-13 0-24 11-24 24 0 13 11 24 24 24l70 0 37 55c10 16 27 25 46 25l94 0c19 0 36-9 46-25z m-238-103l0-304c0-18 14-32 32-32l224 0c18 0 32 14 32 32l0 304z m80-64l0-208c0-9-7-16-16-16-9 0-16 7-16 16l0 208c0 9 7 16 16 16 9 0 16-7 16-16z m80 0l0-208c0-9-7-16-16-16-9 0-16 7-16 16l0 208c0 9 7 16 16 16 9 0 16-7 16-16z m80 0l0-208c0-9-7-16-16-16-9 0-16 7-16 16l0 208c0 9 7 16 16 16 9 0 16-7 16-16z"/>
<glyph glyph-name="video" unicode="&#57;" d="M57 384c-8 0-14-6-14-14l0-228c0-8 6-14 14-14l227 0c8 0 15 6 15 14l0 228c0 8-7 14-15 14z m-57-14c0 31 26 57 57 57l227 0c32 0 57-26 57-57l0-228c0-31-25-57-57-57l-227 0c-31 0-57 26-57 57z m469-209l0 190-99-44 0 46 92 42c5 2 10 3 15 3 19 0 35-16 35-35l0-214c0-19-16-35-35-35-5 0-10 1-15 3l-92 42 0 46z"/>
<glyph glyph-name="pencil" unicode="&#33;" d="M396 472c9 10 24 10 34 0l42-42c10-10 10-25 0-34l-54-55-77 77z m-78-77l77-77-219-219 0 13c0 9-7 16-16 16l-32 0 0 32c0 9-7 16-16 16l-13 0z m-251-263c1 4 3 8 5 12l24 0 0-32c0-9 7-16 16-16l32 0 0-24c-4-2-7-4-12-5l-92-27 27 92z m385 363c-21 22-57 22-79 0l-313-313c-11-11-19-25-24-41l-35-121c-2-5 0-11 4-15 4-4 10-6 16-4l121 35c15 5 29 13 40 24l313 313c22 22 22 57 0 79z m-121-186c7 6 7 17 0 23-6 6-16 6-22 0l-128-128c-6-6-6-17 0-23 6-6 16-6 22 0z"/>
<glyph glyph-name="desktop" unicode="&#34;" d="M469 484l-426 0c-24 0-43-20-43-43l0-285c0-23 19-42 43-42l170 0-14-43-64 0c-12 0-21-9-21-21 0-12 9-22 21-22l242 0c12 0 21 10 21 22 0 12-9 21-21 21l-64 0-14 43 170 0c24 0 43 19 43 42l0 285c0 23-19 43-43 43z m-14-313l-398 0 0 256 398 0z"/>
<glyph glyph-name="dot-circle" unicode="&#35;" d="M464 256c0 115-93 208-208 208-115 0-208-93-208-208 0-115 93-208 208-208 115 0 208 93 208 208z m-464 0c0 141 115 256 256 256 141 0 256-115 256-256 0-141-115-256-256-256-141 0-256 115-256 256z m256 96c53 0 96-43 96-96 0-53-43-96-96-96-53 0-96 43-96 96 0 53 43 96 96 96z"/>
<glyph glyph-name="dice" unicode="&#36;" d="M96 480c-35 0-64-29-64-64l0-320c0-35 29-64 64-64l320 0c35 0 64 29 64 64l0 320c0 35-29 64-64 64z m64-96c18 0 32-14 32-32 0-18-14-32-32-32-18 0-32 14-32 32 0 18 14 32 32 32z m-32-224c0 18 14 32 32 32 18 0 32-14 32-32 0-18-14-32-32-32-18 0-32 14-32 32z m128 128c18 0 32-14 32-32 0-18-14-32-32-32-18 0-32 14-32 32 0 18 14 32 32 32z m64 64c0 18 14 32 32 32 18 0 32-14 32-32 0-18-14-32-32-32-18 0-32 14-32 32z m32-160c18 0 32-14 32-32 0-18-14-32-32-32-18 0-32 14-32 32 0 18 14 32 32 32z"/>
<glyph glyph-name="check-double" unicode="&#37;" d="M375 425c12 13 12 33 0 46-13 12-33 12-46 0l-137-138-57 58c-13 12-33 12-46 0-12-13-12-33 0-46l80-80c13-12 33-12 46 0z m96-128c12 13 12 33 0 46-13 12-33 12-46 0l-233-234-105 106c-13 12-33 12-46 0-12-13-12-33 0-46l128-128c13-12 33-12 46 0l256 256z"/>
<glyph glyph-name="chevron-up" unicode="&#38;" d="M256 429l237-237-45-45-192 192-169-170-23-22-45 45z"/>
<glyph glyph-name="clock" unicode="&#39;" d="M256 512c141 0 256-115 256-256 0-141-115-256-256-256-141 0-256 115-256 256 0 141 115 256 256 256z m-24-120l0-136c0-8 4-16 11-20l96-64c11-7 26-4 33 7 7 11 4 26-7 33l-85 57 0 123c0 13-11 24-24 24-13 0-24-11-24-24z"/>
<glyph glyph-name="edit" unicode="&#40;" d="M441 453l12-12c10-9 10-25 0-34l-29-29-46 46 29 29c9 9 25 9 34 0z m-231-197l134 134 46-46-134-134c-3-3-7-5-11-6l-58-17 17 58c1 4 3 8 6 11z m163 231l-197-197c-9-9-15-20-18-31l-29-100c-2-9 0-18 6-24 6-6 15-8 24-6l100 29c11 3 22 9 31 18l197 197c28 28 28 74 0 102l-12 12c-28 28-74 28-102 0z m-285-39c-49 0-88-39-88-88l0-272c0-49 39-88 88-88l272 0c49 0 88 39 88 88l0 112c0 13-11 24-24 24-13 0-24-11-24-24l0-112c0-22-18-40-40-40l-272 0c-22 0-40 18-40 40l0 272c0 22 18 40 40 40l112 0c13 0 24 11 24 24 0 13-11 24-24 24z"/>
<glyph glyph-name="image" unicode="&#41;" d="M448 432c9 0 16-7 16-16l0-320-5 7-136 176c-4 6-12 9-19 9-7 0-14-3-19-9l-83-108-30 43c-5 6-12 10-20 10-8 0-15-4-19-10l-80-112-5-6 0 320c0 9 7 16 16 16z m-384 48c-35 0-64-29-64-64l0-320c0-35 29-64 64-64l384 0c35 0 64 29 64 64l0 320c0 35-29 64-64 64z m80-192c27 0 48 21 48 48 0 27-21 48-48 48-27 0-48-21-48-48 0-27 21-48 48-48z"/>
<glyph glyph-name="plug" unicode="&#42;" d="M192 488c0 13-11 24-24 24-13 0-24-11-24-24l0-88 48 0z m176 0c0 13-11 24-24 24-13 0-24-11-24-24l0-88 48 0z m-280-120c-13 0-24-11-24-24 0-13 11-24 24-24l8 0 0-64c0-80 59-147 136-158l0-74c0-13 11-24 24-24 13 0 24 11 24 24l0 74c77 11 136 78 136 158l0 64 8 0c13 0 24 11 24 24 0 13-11 24-24 24z m168-224c-62 0-112 50-112 112l0 64 224 0 0-64c0-62-50-112-112-112z"/>
<glyph glyph-name="plus-circle" unicode="&#43;" d="M256 464c115 0 208-93 208-208 0-115-93-208-208-208-115 0-208 93-208 208 0 115 93 208 208 208z m0-464c141 0 256 115 256 256 0 141-115 256-256 256-141 0-256-115-256-256 0-141 115-256 256-256z m-24 168c0-13 11-24 24-24 13 0 24 11 24 24l0 64 64 0c13 0 24 11 24 24 0 13-11 24-24 24l-64 0 0 64c0 13-11 24-24 24-13 0-24-11-24-24l0-64-64 0c-13 0-24-11-24-24 0-13 11-24 24-24l64 0z"/>
<glyph glyph-name="sync-alt" unicode="&#44;" d="M94 325c27 63 89 107 162 107 40 0 78-16 106-44l4-4-36-36c-6-6-10-15-10-25 0-19 16-35 35-35l117 0c13 0 24 11 24 24l0 117c0 19-16 35-35 35-10 0-19-4-25-10l-36-36-4 4c-37 37-87 58-140 58-93 0-172-56-206-136-5-13 0-27 13-32 12-5 26 1 31 13z m368-157c5 12 0 26-13 31-12 6-26 0-31-12-27-63-89-107-162-107-40 0-78 16-106 44l-4 4 36 36c6 6 10 15 10 25 0 19-16 35-35 35l-117 0c-13 0-24-11-24-24l0-117c0-19 16-35 35-35 10 0 19 4 25 10l36 36 4-4c37-37 88-58 140-58 93 0 172 56 206 136z m-14 168l-62 0 62 62z m-384-160l62 0-62-62z"/>
<glyph glyph-name="tasks" unicode="&#45;" d="M152 474c10-9 11-24 2-34l-72-80c-4-5-11-8-17-8-7 0-13 2-18 7l-40 40c-9 9-9 25 0 34 9 9 25 9 34 0l22-22 55 61c9 10 24 11 34 2z m0-160c10-9 11-24 2-34l-72-80c-4-5-11-8-17-8-7 0-13 2-18 7l-40 40c-9 9-9 25 0 34 9 9 25 9 34 0l22-22 55 61c9 10 24 11 34 2z m72 102c0 18 14 32 32 32l224 0c18 0 32-14 32-32 0-18-14-32-32-32l-224 0c-18 0-32 14-32 32z m0-160c0 18 14 32 32 32l224 0c18 0 32-14 32-32 0-18-14-32-32-32l-224 0c-18 0-32 14-32 32z m-64-160c0 18 14 32 32 32l288 0c18 0 32-14 32-32 0-18-14-32-32-32l-288 0c-18 0-32 14-32 32z m-112 48c27 0 48-21 48-48 0-27-21-48-48-48-27 0-48 21-48 48 0 27 21 48 48 48z"/>
<glyph glyph-name="th" unicode="&#66;" d="M32 440c0 22 18 40 40 40l48 0c22 0 40-18 40-40l0-48c0-22-18-40-40-40l-48 0c-22 0-40 18-40 40z m0-160c0 22 18 40 40 40l48 0c22 0 40-18 40-40l0-48c0-22-18-40-40-40l-48 0c-22 0-40 18-40 40z m128-160l0-48c0-22-18-40-40-40l-48 0c-22 0-40 18-40 40l0 48c0 22 18 40 40 40l48 0c22 0 40-18 40-40z m32 320c0 22 18 40 40 40l48 0c22 0 40-18 40-40l0-48c0-22-18-40-40-40l-48 0c-22 0-40 18-40 40z m128-160l0-48c0-22-18-40-40-40l-48 0c-22 0-40 18-40 40l0 48c0 22 18 40 40 40l48 0c22 0 40-18 40-40z m-128-160c0 22 18 40 40 40l48 0c22 0 40-18 40-40l0-48c0-22-18-40-40-40l-48 0c-22 0-40 18-40 40z m288 320l0-48c0-22-18-40-40-40l-48 0c-22 0-40 18-40 40l0 48c0 22 18 40 40 40l48 0c22 0 40-18 40-40z m-128-160c0 22 18 40 40 40l48 0c22 0 40-18 40-40l0-48c0-22-18-40-40-40l-48 0c-22 0-40 18-40 40z m128-160l0-48c0-22-18-40-40-40l-48 0c-22 0-40 18-40 40l0 48c0 22 18 40 40 40l48 0c22 0 40-18 40-40z"/>
<glyph glyph-name="copy" unicode="&#46;" d="M416 176l-192 0c-9 0-16 7-16 16l0 256c0 9 7 16 16 16l140 0 68-68 0-204c0-9-7-16-16-16z m-192-48l192 0c35 0 64 29 64 64l0 204c0 13-5 25-14 34l-68 68c-9 9-21 14-34 14l-140 0c-35 0-64-29-64-64l0-256c0-35 29-64 64-64z m-128 256c-35 0-64-29-64-64l0-256c0-35 29-64 64-64l192 0c35 0 64 29 64 64l0 32-48 0 0-32c0-9-7-16-16-16l-192 0c-9 0-16 7-16 16l0 256c0 9 7 16 16 16l32 0 0 48z"/>
<glyph glyph-name="heart" unicode="&#98;" d="M244 381l-12 14-4 5c-26 29-65 42-104 35-53-9-92-56-92-110l0-3c0-33 13-64 37-86l184-171c1-1 2-1 3-1 1 0 2 0 3 1l184 171c24 22 37 53 37 86l0 3c0 54-39 101-92 110-38 7-78-6-104-35l-4-5-12-14c-3-3-7-5-12-5-5 0-9 2-12 5z m35 57c32 26 74 36 115 29 68-13 118-72 118-142l0-3c0-36-13-71-37-98-3-4-6-7-10-11l-184-171c-1-1-2-2-3-2-6-5-14-8-22-8-9 0-18 4-25 10l-184 171c-4 3-7 7-10 11-24 27-37 62-37 98l0 3c0 70 50 129 118 142 41 7 83-3 115-29 7-5 13-11 19-17l4-5 4 5c4 5 9 9 13 13 2 1 4 3 6 4z"/>
<glyph glyph-name="thumbs-up-alt" unicode="&#102;" d="M289 430c3 13 17 21 29 17 13-3 21-17 17-29l-4-17c-6-20-14-39-25-57-3-5-3-11 0-16 2-5 8-8 14-8l128 0c18 0 32-14 32-32 0-11-6-21-15-27-7-5-9-14-5-21 3-5 4-10 4-16 0-13-7-23-17-29-4-2-8-6-9-10-1-5 1-10 3-14 5-5 7-12 7-19 0-14-9-26-22-31-8-2-12-10-11-18 1-2 1-5 1-7 0-18-14-32-32-32l-89 0c-16 0-32 5-45 13l-38 26c-9 6-17 14-23 23-5 7-15 9-22 4-7-5-9-15-5-22 9-12 19-23 32-32l38-25c19-13 40-19 62-19l90 0c35 0 64 29 64 64l0 1c19 11 32 31 32 55 0 9-2 17-5 25 13 11 21 28 21 47 0 6-1 13-3 19 12 11 19 27 19 45 0 35-29 64-64 64l-102 0c7 13 12 27 16 41l4 16c8 30-9 61-39 69-30 8-61-9-69-39l-5-17c-8-32-29-60-58-79l-3-2c-12-7-22-17-29-28-5-7-4-17 4-22 7-5 17-3 22 4 5 8 12 14 20 19l3 2c36 23 61 58 72 98z m-257-142l64 0 0-224-64 0z m-32 0l0-224c0-18 14-32 32-32l64 0c18 0 32 14 32 32l0 224c0 18-14 32-32 32l-64 0c-18 0-32-14-32-32z"/>
<glyph glyph-name="photo-video" unicode="&#115;" d="M461 435l-256 0c-14 0-26-11-26-25l0-136 59 59c10 10 26 10 36 0l33-33 85 84c10 10 26 10 36 0l58-59 0 85c0 14-11 25-25 25z m51-141c0 0 0 0 0 0l0-64c0-28-23-51-51-51l-256 0c-28 0-51 23-51 51l0 180c0 28 23 51 51 51l256 0c28 0 51-23 51-51z m-26-5l-76 77-94-93-68-68 213 0c14 0 25 11 25 25l0 59z m-274-84l77 77-33 33-77-77 0-8c0-14 12-25 26-25z m25 192c10 0 19-9 19-19 0-11-9-20-19-20-11 0-19 9-19 20 0 10 8 19 19 19z m-135-64l26 0 0-26-26 0 0-230 205 0 0 77 26 0 0-77 25 0c15 0 26 11 26 25l0 52 26 0 0-52c0-28-23-51-52-51l-307 0c-28 0-51 23-51 51l0 180c0 28 23 51 51 51z m-76-77l51 0 0 51-26 0c-14 0-25-11-25-25z m0-128l0-26c0-14 11-25 25-25l26 0 0 51z m51 26l0 76-51 0 0-76z"/>
<glyph glyph-name="home" unicode="&#47;" d="M270 478c-8 7-20 7-28 0l-235-199c-9-7-10-21-2-30 8-9 21-10 30-2l22 18 0-165c0-40 32-72 71-72l256 0c39 0 71 32 71 72l0 165 22-18c9-8 22-7 30 2 7 9 6 23-3 30z m-170-378l0 202 156 132 156-132 0-202c0-16-12-29-28-29l-43 0 0 135c0 20-16 36-35 36l-100 0c-19 0-35-16-35-36l0-135-43 0c-16 0-28 13-28 29z m113-29l0 128 86 0 0-128z"/>
<glyph glyph-name="comment-smile" unicode="&#58;" d="M32 272c0 91 94 176 224 176 130 0 224-85 224-176 0-91-94-176-224-176-32 0-63 6-93 16-10 3-21 2-30-4-15-11-31-20-48-27l6-15-6 15c-11-5-22-9-33-12 1 1 1 2 2 3 14 23 22 49 25 76 1 9-2 18-7 24-24 29-40 63-40 100z m224 208c-141 0-256-93-256-208 0-47 20-87 47-121 0 0 1 0 1 0-3-22-10-43-22-63-6-11-13-21-21-29-5-4-6-11-4-17 3-6 8-10 15-10 29 0 58 9 82 19 19 9 37 19 53 31 1 0 1 0 1 0 34-11 68-18 104-18 142 0 256 93 256 208 0 115-114 208-256 208z m-64-184c13 0 24 11 24 24 0 13-11 24-24 24-13 0-24-11-24-24 0-13 11-24 24-24z m128 0c13 0 24 11 24 24 0 13-11 24-24 24-13 0-24-11-24-24 0-13 11-24 24-24z m-164-68c-7-6-7-16-1-23 25-28 61-45 101-45 40 0 77 17 101 45 6 7 6 17-1 23-6 6-17 5-22-1-19-22-47-35-78-35-31 0-58 13-77 35-6 6-16 7-23 1z"/>
<glyph glyph-name="file-certificate" unicode="&#59;" d="M480 64c0-18-14-32-32-32l-224 0 0-16c0-6-1-11-3-16l227 0c35 0 64 29 64 64l0 284c0 13-5 25-14 34l-116 116c-9 9-21 14-34 14l-156 0c-35 0-64-29-64-64l0-71 0 0c2 1 4 2 7 3 8 3 17 5 25 4l0 64c0 18 14 32 32 32l128 0 0-112c0-27 22-48 48-48l112 0z m0 288l-112 0c-9 0-16 7-16 16l0 111c3 0 5-2 7-4l116-116c2-2 4-4 5-7z m-410-199l-2-15 2 15-11 2-1 11c-2 10-7 20-16 26l-19-25 19 25-8 7 4 10c4 9 4 20 0 30l-4 10 8 7-19 25-14-10c-8-7-11-18-7-28l6-16c1-2 1-4 0-6l-6-16c-4-10-1-21 7-28l14-10c2-2 3-3 3-5l2-17c2-11 10-19 21-21l15-2 0-106c0-6 3-11 9-14 5-3 11-3 16 1l39 26 39-26c5-4 11-4 17-1 5 3 8 8 8 14l0 106 15 2c11 2 20 10 21 21l2 16-31 5-2-11-11-2c-10-1-20-6-26-15l-7-8-10 4c-9 4-20 4-30 0l-10-4-7 8c-6 9-16 14-26 15z m-47 128l19-25c9 6 14 16 16 26l-29 4 29-4 1 11 11 1c10 2 20 7 26 16l7 8 10-4c10-4 20-4 30 0l-11 28 11-28 10 4 7-8c6-9 16-14 26-16l11-1 2-11c1-10 6-20 15-26l8-7-4-10c-4-10-4-20 0-30l4-10-8-7c-9-6-14-16-15-26l31-4c1 2 2 4 3 5l14 10c8 7 11 18 7 28l-6 16c-1 2-1 4 0 6l6 16c4 10 1 21-7 28l-14 10c-1 1-2 3-3 5l-2 17c-1 11-10 19-20 21l-17 2c-2 0-4 1-6 3l-10 14c-7 8-18 11-28 7l-16-6c-2-1-4-1-6 0l-16 6c-10 4-21 1-28-7l-10-14c-2-2-3-3-5-3l-17-2c-11-2-19-10-21-21l-2-17c0-2-2-4-3-5z m137-235l-23 15c-5 4-12 4-18 0l-23-15 0 50c4 0 9 0 13 2l16 6c2 1 4 1 6 0l16-6c4-2 9-2 13-2z"/>
<glyph glyph-name="file-import" unicode="&#60;" d="M448 48l-256 0c-9 0-16 7-16 16l0 80-48 0 0-80c0-35 29-64 64-64l256 0c35 0 64 29 64 64l0 293c0 17-7 34-19 46l-90 90c-12 12-28 19-45 19l-166 0c-35 0-64-29-64-64l0-192 48 0 0 192c0 9 7 16 16 16l160 0 0-80c0-18 14-32 32-32l80 0 0-288c0-9-7-16-16-16z m-151 249c-9 9-25 9-34 0-9-9-9-25 0-34l39-39-278 0c-13 0-24-11-24-24 0-13 11-24 24-24l278 0-39-39c-9-9-9-25 0-34 10-9 25-9 34 0l80 80c9 10 9 25 0 34l-80 80z"/>
<glyph glyph-name="filter" unicode="&#61;" d="M0 440c0 22 18 40 40 40l433 0c21 0 39-18 39-40 0-9-3-18-9-25l-183-221 0-128c0-19-15-34-34-34-7 0-15 2-21 7l-61 47c-7 7-12 16-12 26l0 82-183 221c-6 7-9 16-9 25z m40 8c-5 0-8-3-8-8 0-1 1-3 2-4l186-226c3-3 4-6 4-10l0-88 61-48c0 0 1 0 1 0 1 0 2 1 2 2l0 134c0 4 1 7 4 10l186 226c1 1 2 3 2 4 0 5-3 8-7 8z"/>
<glyph glyph-name="fingerprint" unicode="&#62;" d="M32 256c0 124 100 224 224 224 70 0 133-32 174-83 6-7 16-8 23-2 7 5 8 15 2 22-47 58-119 95-199 95-141 0-256-115-256-256l0-48c0-9 7-16 16-16 9 0 16 7 16 16z m471 68c-3 9-11 14-20 11-8-2-13-11-11-19 5-19 8-39 8-60l0-48c0-9 7-16 16-16 9 0 16 7 16 16l0 48c0 24-3 46-9 68z m-247 108c-23 0-45-4-65-12-9-4-12-16-5-24 5-6 13-8 20-5 16 6 32 9 50 9 80 0 144-64 144-144l0-25c0-28-2-56-5-84-2-10 6-19 16-19 7 0 14 6 15 14 4 29 6 59 6 89l0 25c0 97-79 176-176 176z m-111-62c-6 7-17 7-23 0-26-30-42-70-42-114l0-25c0-28-3-55-10-82-3-11 5-21 16-21 7 0 13 5 15 11 7 30 11 61 11 92l0 25c0 35 12 66 33 91 5 7 6 16 0 23z m111-18c-53 0-96-43-96-96l0-25c0-39-5-77-16-114-3-10 5-21 16-21 7 0 13 4 15 11 11 40 17 82 17 124l0 25c0 35 29 64 64 64 35 0 64-29 64-64l0-25c0-39-4-77-12-115-2-10 6-20 16-20 8 0 14 5 16 12 8 41 12 82 12 123l0 25c0 53-43 96-96 96z m16-96c0 9-7 16-16 16-9 0-16-7-16-16l0-25c0-61-11-121-33-178l-6-15c-3-9 1-18 9-21 9-3 18 1 21 9l6 15c23 61 35 125 35 190z"/>
<glyph glyph-name="font-case" unicode="&#63;" d="M464 96l-23 0-131 362c-5 13-17 22-30 22l-48 0c-13 0-25-9-30-22l-131-362-23 0c-9 0-16-7-16-16l0-32c0-9 7-16 16-16l128 0c9 0 16 7 16 16l0 32c0 9-7 16-16 16l-20 0 24 64 152 0 24-64-20 0c-9 0-16-7-16-16l0-32c0-9 7-16 16-16l128 0c9 0 16 7 16 16l0 32c0 9-7 16-16 16z m-255 144l47 129 47-129z"/>
<glyph glyph-name="check" unicode="&#64;" d="M473 409c9-9 9-25 0-34l-264-264c-9-9-25-9-34 0l-136 136c-9 9-9 25 0 34 9 9 25 9 34 0l119-119 247 247c9 9 25 9 34 0z"/>
<glyph glyph-name="question" unicode="&#91;" d="M266 512c-80 0-131-33-172-91-7-11-5-25 5-33l43-33c11-8 25-6 34 4 25 32 43 50 82 50 31 0 69-20 69-50 0-22-18-34-49-51-35-20-82-45-82-106l0-10c0-13 11-24 24-24l72 0c14 0 24 11 24 24l0 6c0 43 126 44 126 160 0 88-91 154-176 154z m-10-374c-38 0-69-31-69-69 0-38 31-69 69-69 38 0 69 31 69 69 0 38-31 69-69 69z"/>
<glyph glyph-name="thumbs-up" unicode="&#93;" d="M313 479c26-5 43-30 38-56l-2-12c-5-27-15-52-29-75l144 0c27 0 48-22 48-48 0-19-10-35-26-43 11-8 18-22 18-37 0-23-17-43-39-47 5-7 7-16 7-25 0-21-14-39-33-46 1-3 1-6 1-10 0-27-21-48-48-48l-97 0c-19 0-38 6-54 16l-38 26c-27 18-43 48-43 80l0 111c0 29 13 57 36 75l7 6c27 21 45 51 52 84l2 11c5 26 30 43 56 38z m-281-159l64 0c18 0 32-14 32-32l0-224c0-18-14-32-32-32l-64 0c-18 0-32 14-32 32l0 224c0 18 14 32 32 32z"/>
<glyph glyph-name="users" unicode="&#94;" d="M115 461c36 0 64-29 64-64 0-36-28-64-64-64-35 0-64 28-64 64 0 35 29 64 64 64z m295 0c35 0 64-29 64-64 0-36-29-64-64-64-36 0-64 28-64 64 0 35 28 64 64 64z m-410-239c0 47 38 85 85 85l35 0c12 0 24-3 35-8-1-5-1-11-1-17 0-31 13-58 34-77 0 0 0 0 0 0l-171 0c-9 0-17 7-17 17z m324-17c0 0 0 0 0 0 21 19 34 46 34 77 0 6 0 12-1 17 11 5 23 8 35 8l35 0c47 0 85-38 85-85 0-10-8-17-17-17z m-145 77c0 42 35 76 77 76 42 0 77-34 77-76 0-43-35-77-77-77-42 0-77 34-77 77z m-77-209c0 58 48 106 107 106l94 0c59 0 107-48 107-106 0-12-10-22-22-22l-264 0c-12 0-22 10-22 22z"/>
<glyph glyph-name="user" unicode="&#95;" d="M336 384c0 44-36 80-80 80-44 0-80-36-80-80 0-44 36-80 80-80 44 0 80 36 80 80z m-208 0c0 71 57 128 128 128 71 0 128-57 128-128 0-71-57-128-128-128-71 0-128 57-128 128z m-47-336l350 0c-9 63-64 112-129 112l-92 0c-65 0-120-49-129-112z m-49-18c0 98 80 178 178 178l92 0c98 0 178-80 178-178 0-17-13-30-30-30l-388 0c-17 0-30 13-30 30z"/>
<glyph glyph-name="play-circle" unicode="&#96;" d="M0 256c0 141 115 256 256 256 141 0 256-115 256-256 0-141-115-256-256-256-141 0-256 115-256 256z m188 109c-7-4-12-12-12-21l0-176c0-9 5-17 12-21 8-4 17-4 25 1l144 88c7 4 11 12 11 20 0 8-4 16-11 21l-144 88c-8 4-17 4-25 0z"/>
<glyph glyph-name="sort-numeric-up-1" unicode="&#123;" d="M362 253c-26-7-47-28-55-54-14-51 21-98 69-103-6-5-13-9-21-13-7-3-11-12-8-20l10-20c3-8 12-13 21-10 58 25 86 62 86 132l0 11c0 51-48 91-102 77z m22-97c-11 0-20 9-20 20 0 11 9 20 20 20 11 0 20-9 20-20 0-11-9-20-20-20z m-48 260l16 0 0-64-16 0c-9 0-16-7-16-16l0-32c0-9 7-16 16-16l96 0c9 0 16 7 16 16l0 32c0 9-7 16-16 16l-16 0 0 112c0 9-7 16-16 16l-48 0c-6 0-12-3-14-9l-16-32c-3-5-3-11 0-15 3-5 8-8 14-8z m-197 59c-6 7-16 7-22 0l-80-96c-10-10-3-27 11-27l48 0 0-304c0-9 7-16 16-16l32 0c9 0 16 7 16 16l0 304 48 0c14 0 21 17 11 27z"/>
<glyph glyph-name="signature" unicode="&#114;" d="M499 307c-42-3-101-44-131-57-23-10-43-20-61-20-18 0-21 13-17 42 1 6 10 63-34 61-20-1-51-20-136-101l34 83c24 61-43 121-104 82l-44-29c-6-4-8-12-4-18l14-22c4-6 11-7 17-3l47 31c15 9 32-6 26-22l-79-196c-5-14 3-36 24-36 7 0 13 3 18 8 34 34 124 120 169 157-2-23-1-48 17-67 12-14 30-21 52-21 29 0 55 12 82 24 26 12 79 50 111 53 6 0 12 6 12 13l0 25c0 8-6 14-13 13z"/>
<glyph glyph-name="arrow-alt-right" unicode="&#124;" d="M471 279c12-13 12-33 0-46l-160-160c-10-9-23-12-35-7-12 5-20 17-20 30l0 96-184 0c-22 0-40 18-40 40l0 48c0 22 18 40 40 40l184 0 0 96c0 13 8 25 20 30 12 5 26 2 35-7l160-160z"/>
<glyph glyph-name="star-alt" unicode="&#125;" d="M282 468c-5 9-15 16-26 16-11 0-21-7-26-16l-57-118-127-19c-11-1-20-9-23-19-3-10-1-22 7-29l92-92-21-129c-2-11 2-22 11-28 9-7 21-7 30-2l114 61 114-61c10-5 21-5 30 2 9 6 14 17 12 28l-22 129 92 92c8 7 11 19 7 29-3 10-12 18-22 19l-128 19z"/>
<glyph glyph-name="question-square" unicode="&#126;" d="M96 432c-9 0-16-7-16-16l0-320c0-9 7-16 16-16l320 0c9 0 16 7 16 16l0 320c0 9-7 16-16 16z m-64-16c0 35 29 64 64 64l320 0c35 0 64-29 64-64l0-320c0-35-29-64-64-64l-320 0c-35 0-64 29-64 64z m138-69c8 22 29 37 53 37l58 0c35 0 63-28 63-63 0-23-12-44-32-55l-32-18c0-13-11-24-24-24-13 0-24 11-24 24l0 13c0 9 5 17 12 21l44 26c5 2 8 7 8 13 0 8-7 15-15 15l-58 0c-4 0-7-2-8-5l0-2c-5-12-18-19-31-14-12 4-19 18-14 30l0 2z m54-187c0 18 14 32 32 32 18 0 32-14 32-32 0-18-14-32-32-32-18 0-32 14-32 32z"/>
<glyph glyph-name="receipt" unicode="&#92;" d="M104 506c-7 6-17 8-26 4-8-4-14-13-14-22l0-464c0-9 6-18 14-22 9-4 19-2 26 4l40 34 40-34c9-8 23-8 32 0l40 34 40-34c9-8 23-8 32 0l40 34 40-34c8-6 18-8 26-4 9 4 14 13 14 22l0 464c0 9-5 18-14 22-8 4-18 2-26-4l-40-34-40 34c-9 8-23 8-32 0l-40-34-40 34c-9 8-23 8-32 0l-40-34z m8-430l0 360 16-14c9-8 23-8 32 0l40 34 40-34c9-8 23-8 32 0l40 34 40-34c9-8 23-8 32 0l16 14 0-360-16 14c-9 8-23 8-32 0l-40-34-40 34c-9 8-23 8-32 0l-40-34-40 34c-9 8-23 8-32 0z m72 292c-13 0-24-11-24-24 0-13 11-24 24-24l144 0c13 0 24 11 24 24 0 13-11 24-24 24z m0-176c-13 0-24-11-24-24 0-13 11-24 24-24l144 0c13 0 24 11 24 24 0 13-11 24-24 24z m-24 64c0-13 11-24 24-24l144 0c13 0 24 11 24 24 0 13-11 24-24 24l-144 0c-13 0-24-11-24-24z"/>
<glyph glyph-name="sign-out" unicode="&#57344;" d="M505 239c9 9 9 25 0 34l-128 128c-9 9-25 9-34 0-9-9-9-25 0-34l87-87-246 0c-13 0-24-11-24-24 0-13 11-24 24-24l246 0-87-87c-9-9-9-25 0-34 10-9 25-9 34 0z m-337 193c13 0 24 11 24 24 0 13-11 24-24 24l-80 0c-49 0-88-39-88-88l0-272c0-49 39-88 88-88l80 0c13 0 24 11 24 24 0 13-11 24-24 24l-80 0c-22 0-40 18-40 40l0 272c0 22 18 40 40 40z"/>
<glyph glyph-name="facebook-square" unicode="&#57345;" d="M96 480c-35 0-64-29-64-64l0-320c0-35 29-64 64-64l98 0 0 146-53 0 0 78 53 0 0 34c0 87 40 127 125 127 16 0 44-3 56-6l0-71c-6 1-17 1-30 1-42 0-58-16-58-57l0-28 84 0-15-78-69 0 0-146 129 0c35 0 64 29 64 64l0 320c0 35-29 64-64 64z"/>
<glyph glyph-name="globe" unicode="&#57348;" d="M256 32c17 0 40 14 62 57 10 20 18 44 24 71l-172 0c6-27 14-51 24-71 22-43 45-57 62-57z m-92 160l184 0c3 20 4 42 4 64 0 22-1 44-4 64l-184 0c-2-20-4-42-4-64 0-22 2-44 4-64z m6 160l172 0c-6 27-14 51-24 71-22 43-45 57-62 57-17 0-40-14-62-57-10-20-18-44-24-71z m210-32c3-21 4-42 4-64 0-22-1-44-4-64l91 0c6 20 9 42 9 64 0 22-3 44-9 64z m79 32c-26 54-74 97-131 116 21-28 37-69 47-116l84 0z m-322 0c10 48 27 88 48 116-58-19-106-62-131-116z m-96-32c-6-20-9-42-9-64 0-22 3-44 9-64l91 0c-3 20-4 42-4 64 0 22 1 43 4 64l-91 0z m287-276c57 19 105 61 130 116l-83 0c-10-48-26-88-47-116z m-143 0c-21 28-38 68-48 116l-83 0c26-55 73-97 131-116z m71-44c-141 0-256 115-256 256 0 141 115 256 256 256 141 0 256-115 256-256 0-141-115-256-256-256z"/>
<glyph glyph-name="rabbit-fast" unicode="&#57349;" d="M427 284c6 0 11-4 13-9l1 0c0 0 0 0-1 0 1-2 1-3 1-5 0-8-6-14-14-14-8 0-14 6-14 14 0 8 6 14 14 14z m-28 68c13-2 26-6 37-12 0 31-13 61-36 84l-1 1c-2 1-4 2-7 2l-1-1c-2 0-4-1-5-3-6 7-14 13-21 19 5 6 12 11 21 12l1 1c12 2 23-2 32-10l1-1c33-33 49-78 44-123l21-16c17-12 27-32 27-53 0-37-30-67-67-67l-84 0-28-29 44 0c23 0 43-19 43-42 0-24-20-43-43-43l-105 0c-18 0-37 7-50 21l-11 11-59-39c-20-13-46-8-60 12-13 19-7 46 12 59l45 30-49 49c-9 8-15 19-20 30-5-2-11-2-16-2-35 0-64 28-64 64 0 35 29 64 64 64 14 0 28-5 38-13 18 17 42 27 69 27l8 0c15 0 30-3 44-10l59-26c-2 4-4 9-5 15l-9 32c-5 17 2 34 17 43l7-12-7 12 2 1c8 5 18 6 27 3 41-14 73-48 85-90z m-327-81c-1 4-1 9-1 13 0 19 5 36 14 51-6 4-13 6-21 6-20 0-36-16-36-35 0-20 16-36 36-36 3 0 5 1 8 1z m48-160c-6-4-8-13-4-19 5-7 13-9 20-4l54 36-20 20z m179 17c-4 0-7 1-9 3-1 0-1 1-2 1-2 2-3 5-3 8-1 1-1 1-1 1l-1 22c-3 41-31 76-70 88l-18 6c-8 2-12 10-9 17 2 8 10 12 17 10l18-6c48-14 82-55 89-104l36 35c2 3 6 4 10 4l89 0c21 0 39 18 39 39 0 12-6 23-16 31l-33 24c-14 11-31 17-48 18-6 0-11 4-13 10l-2 7c-8 34-34 62-67 73-1 0-3 0-4-1m0 0l-2-1c-3-2-5-6-4-10l9-33c5-17 15-33 28-46 5-5 6-12 2-18-4-6-11-8-17-5l-105 47c-11 5-22 8-33 8l-8 0c-40 0-71-32-71-72 0-19 7-37 20-50l122-122c8-8 19-12 30-12l105 0c8 0 14 6 14 14 0 8-6 14-14 14l-78 0"/>
<glyph glyph-name="sack" unicode="&#57350;" d="M202 368l109 0 5-3c55-36 164-121 164-269 0-35-29-64-64-64l-320 0c-35 0-64 29-64 64 0 148 109 233 164 269l6 3z m98 32l-88 0-7 10-48 70 198 0-48-70-7-10z m-147-27c-62-45-153-134-153-277 0-53 43-96 96-96l320 0c53 0 96 43 96 96 0 143-91 232-153 277-9 8-18 14-26 19l18 26 39 56c11 16 0 38-20 38l-228 0c-20 0-31-22-20-38l39-56 18-26c-8-5-17-11-26-19z m119-77c0 9-7 16-16 16-9 0-16-7-16-16l0-17c-8-2-17-5-24-9-13-8-24-21-24-41 0-18 11-30 23-37 10-6 24-10 35-14l1 0c13-4 22-7 29-11 6-4 8-7 8-12 0-6-3-11-8-14-6-3-14-5-24-5-11 0-22 4-36 9-2 0-5 1-7 2-8 3-17-2-20-10-3-9 2-18 10-20 2-1 4-2 6-2 9-4 20-7 31-9l0-18c0-9 7-16 16-16 9 0 16 7 16 16l0 17c9 1 17 4 25 9 13 8 23 22 23 42 0 18-11 30-23 38-11 7-25 11-36 15l0 0c-13 3-23 6-30 11-6 3-7 6-7 10 0 5 2 9 8 12 6 4 15 6 24 6 10 0 21-2 32-5 8-3 17 2 19 11 3 8-2 17-11 20-7 2-15 3-24 5z"/>
<glyph glyph-name="address-card" unicode="&#57351;" d="M455 427c16 0 29-13 29-29l0-284c0-16-13-29-29-29l-398 0c-16 0-29 13-29 29l0 284c0 16 13 29 29 29z m-398 28c-31 0-57-25-57-57l0-284c0-32 26-57 57-57l398 0c31 0 57 25 57 57l0 284c0 32-26 57-57 57z m85-142c0 16 13 28 29 28 15 0 28-12 28-28 0-16-13-29-28-29-16 0-29 13-29 29z m86 0c0 31-26 57-57 57-32 0-57-26-57-57 0-32 25-57 57-57 31 0 57 25 57 57z m-128-157c0 24 19 43 42 43l57 0c24 0 43-19 43-43 0-7 6-14 14-14 8 0 14 7 14 14 0 40-32 72-71 72l-57 0c-39 0-71-32-71-72 0-7 7-14 14-14 8 0 15 7 15 14z m213 185c-8 0-14-6-14-14 0-8 6-14 14-14l114 0c7 0 14 6 14 14 0 8-7 14-14 14z m0-57c-8 0-14-6-14-14 0-8 6-14 14-14l114 0c7 0 14 6 14 14 0 8-7 14-14 14z m0-56c-8 0-14-7-14-15 0-7 6-14 14-14l114 0c7 0 14 7 14 14 0 8-7 15-14 15z"/>
<glyph glyph-name="calculator" unicode="&#57352;" d="M416 352l0-288c0-18-14-32-32-32l-256 0c-18 0-32 14-32 32l0 288z m0 32l-320 0 0 64c0 18 14 32 32 32l256 0c18 0 32-14 32-32z m32 0l0 64c0 35-29 64-64 64l-256 0c-35 0-64-29-64-64l0-384c0-35 29-64 64-64l256 0c35 0 64 29 64 64z m-312-96c0-13 11-24 24-24 13 0 24 11 24 24 0 13-11 24-24 24-13 0-24-11-24-24z m24-72c-13 0-24-11-24-24 0-13 11-24 24-24 13 0 24 11 24 24 0 13-11 24-24 24z m72 72c0-13 11-24 24-24 13 0 24 11 24 24 0 13-11 24-24 24-13 0-24-11-24-24z m24-72c-13 0-24-11-24-24 0-13 11-24 24-24 13 0 24 11 24 24 0 13-11 24-24 24z m72 72c0-13 11-24 24-24 13 0 24 11 24 24 0 13-11 24-24 24-13 0-24-11-24-24z m24-72c-13 0-24-11-24-24 0-13 11-24 24-24 13 0 24 11 24 24 0 13-11 24-24 24z m-24-120c0-13 11-24 24-24 13 0 24 11 24 24 0 13-11 24-24 24-13 0-24-11-24-24z m-184 16c-9 0-16-7-16-16 0-9 7-16 16-16l128 0c9 0 16 7 16 16 0 9-7 16-16 16z"/>
<glyph glyph-name="file-plus" unicode="&#57346;" d="M384 32l-256 0c-18 0-32 14-32 32l0 384c0 18 14 32 32 32l128 0 0-112c0-27 22-48 48-48l112 0 0-256c0-18-14-32-32-32z m-80 320c-9 0-16 7-16 16l0 111c3 0 5-2 7-4l116-116c2-2 4-4 5-7z m-176 160c-35 0-64-29-64-64l0-384c0-35 29-64 64-64l256 0c35 0 64 29 64 64l0 284c0 13-5 25-14 34l-116 116c-9 9-21 14-34 14z m112-416c0-9 7-16 16-16 9 0 16 7 16 16l0 64 64 0c9 0 16 7 16 16 0 9-7 16-16 16l-64 0 0 64c0 9-7 16-16 16-9 0-16-7-16-16l0-64-64 0c-9 0-16-7-16-16 0-9 7-16 16-16l64 0z"/>
<glyph glyph-name="bullhorn" unicode="&#57347;" d="M416 468c0 7-9 11-14 5l-24-25c-41-44-95-74-154-88l0-177c59-13 113-43 154-87l24-25c5-6 14-2 14 5z m-224-279l0 166c-6-1-12-1-17-1l-30-2-81 0c-18 0-32-14-32-32l0-96c0-18 14-32 32-32l81 0 30-2c5 0 11 0 17-1z m187 306c25 27 69 9 69-27l0-392c0-36-44-54-69-27l-24 25c-43 45-101 75-163 83l0-101c0-31-25-56-56-56l-16 0c-31 0-56 25-56 56l0 104c-35 0-64 29-64 64l0 96c0 35 29 64 64 64l80 0 29 2c69 3 134 34 182 84z m-283-335l0-104c0-13 11-24 24-24l16 0c13 0 24 11 24 24l0 103-16 1z m400 160c9 0 16-7 16-16l0-64c0-9-7-16-16-16-9 0-16 7-16 16l0 64c0 9 7 16 16 16z"/>
<glyph glyph-name="trophy-alt" unicode="&#57353;" d="M156 455l200 0c8 0 13-6 13-13-6-146-40-213-68-243-13-16-26-22-35-25-4-2-7-3-9-3 0 0-1 0-1 0 0 0-1 0-1 0-2 0-5 1-10 3-8 3-21 10-35 25-27 30-61 97-67 243 0 7 6 13 13 13z m200 29l-200 0c-23 0-42-20-41-43 0-5 0-10 0-14l-72 0c-23 0-44-20-41-45 9-83 55-140 105-177 49-37 104-55 132-60l0 1c1-1 2-1 3-1l0-88-86 0c-7 0-14-7-14-14 0-8 7-15 14-15l200 0c7 0 14 7 14 15 0 7-7 14-14 14l-86 0 0 88c1 0 2 0 3 1l0-1c28 5 83 23 132 60 50 37 96 94 105 177 3 25-18 45-41 45l-72 0c0 4 0 9 0 14 1 23-18 43-41 43z m39-86l74 0c9 0 14-6 13-12-8-74-48-125-94-158-17-13-35-24-52-32 26 37 50 99 59 202z m-219-202c-17 8-35 19-52 32-46 33-86 84-94 158-1 6 4 12 13 12l74 0c9-103 33-165 59-202z"/>
<glyph glyph-name="dice-d20" unicode="&#57354;" d="M218 456l-140-84 61-45z m-154-114l0-150 59 107z m41-218l135-81 0 70z m167-81l135 81-135-11z m176 149l0 150-59-43z m-14 180l-139 84 78-129 61 45z m-190 137c7 4 17 4 24 0l200-120c8-5 12-13 12-21l0-224c0-8-4-16-12-21l-200-120c-7-4-17-4-24 0l-200 120c-8 5-12 13-12 21l0 224c0 8 4 16 12 21z m-19-363l-80 127-63-115 143-12z m114 142l-166 0 83-130z m-83 169l-83-137 167 0z m31-311l143 12-63 115z"/>
<glyph glyph-name="clipboard-list-check" unicode="&#57355;" d="M210 444c5 21 24 36 46 36 22 0 41-15 47-36 1-7 8-12 15-12l18 0c9 0 16-7 16-16l0-32-192 0 0 32c0 9 7 16 16 16l18 0c7 0 14 5 16 12z m46 68c-33 0-61-20-73-48l-7 0c-21 0-39-13-45-32l-3 0c-35 0-64-29-64-64l0-304c0-35 29-64 64-64l256 0c35 0 64 29 64 64l0 304c0 35-29 64-64 64l-3 0c-6 19-24 32-45 32l-7 0c-12 28-40 48-73 48z m128-112c18 0 32-14 32-32l0-304c0-18-14-32-32-32l-256 0c-18 0-32 14-32 32l0 304c0 18 14 32 32 32l0-16c0-18 14-32 32-32l192 0c18 0 32 14 32 32z m-112 32c0 9-7 16-16 16-9 0-16-7-16-16 0-9 7-16 16-16 9 0 16 7 16 16z m-37-155c7 6 7 16 0 22-6 6-16 6-22 0l-37-36-13 12c-6 6-16 6-22 0-6-6-6-16 0-22l24-24c6-7 16-7 22 0z m21-37c0-9 7-16 16-16l64 0c9 0 16 7 16 16 0 9-7 16-16 16l-64 0c-9 0-16-7-16-16z m-32-96c0-9 7-16 16-16l96 0c9 0 16 7 16 16 0 9-7 16-16 16l-96 0c-9 0-16-7-16-16z m-48-24c13 0 24 11 24 24 0 13-11 24-24 24-13 0-24-11-24-24 0-13 11-24 24-24z"/>
<glyph glyph-name="file-pen" unicode="&#57356;" d="M57 57l173 0-1-4c-2-8-2-17 1-25l-173 0c-31 0-57 26-57 57l0 342c0 31 26 57 57 57l139 0c11 0 22-5 30-13l103-103c8-8 12-19 12-30l0-108-28-29 0 112-100 0c-23 0-42 19-42 43l0 99-114 0c-16 0-29-13-29-28l0-342c0-15 13-28 29-28z m255 284c0 3-1 5-3 7l-103 103c-2 2-4 3-7 4l0-99c0-8 7-15 14-15z m149-92c-6 5-15 5-20 0l-22-22 35-36 22 22c6 6 6 15 0 21l-15 15z m-157-137c-2-1-3-4-3-6l-11-44 43 11c3 1 5 2 7 4l94 94-35 36z m117 157c16 17 43 17 60 0l15-15c17-17 17-44 0-61l-136-136c-6-6-12-10-20-11l-66-17c-5-1-10 0-14 4-3 3-5 8-4 13l17 67c2 7 6 14 11 20z"/>
<glyph glyph-name="signs-post" unicode="&#57357;" d="M240 512l32 0 0-32 176 0 64-80-64-80-176 0 0-32 208 0 0-160-208 0 0-128-32 0 0 128-176 0-64 80 64 80 176 0 0 32-208 0 0 160 208 0z m193-64l-369 0 0-96 369 0 38 48z m-354-192l-38-48 38-48 369 0 0 96z"/>
<glyph glyph-name="user-secret" unicode="&#57359;" d="M201 474c-6-6-12-17-18-32-6-14-11-31-15-47 24-6 54-11 88-11 34 0 63 5 88 12-4 16-9 32-15 46-6 15-12 26-18 32-4 5-6 6-7 6-5 0-7-1-8-1-1 0-2-1-4-2 0 0 0 0-1 0-3-3-17-13-35-13-18 0-32 10-35 13 0 0-1 0-1 0-1 1-2 2-3 2-1 0-4 1-9 1 0 0-3-1-7-6z m103 38c34 0 57-55 71-106 1 0 1 1 2 1 15 6 27 11 35 16 3 2 6 3 8 5 1 0 2 1 3 1l0 0 0 0c8 5 18 3 22-4 5-8 3-18-4-22l-9 13c9-13 9-13 9-13l0 0 0 0-1-1c-1 0-2-1-3-2-2-1-6-3-10-5-9-5-22-12-38-18-33-12-79-25-133-25-58 0-104 12-136 25-16 6-28 13-36 18-4 2-8 4-10 6-1 0-2 1-2 1l-1 1 0 0 0 0c0 0 0 0 9 13l-9-13c-7 5-9 15-4 23 6 7 16 8 23 3l0 0 0-1c1 0 1 0 2-1 2-1 5-3 8-5 7-4 18-10 32-15 2-1 4-2 5-2 14 51 37 107 71 107 18 0 26-5 33-10 4-3 8-6 15-6 7 0 11 3 16 6 6 5 14 10 32 10z m0-32c0 0 0 0 0 0 0 0 0 0 0 0 0 0 0 0 0 0 0 0 0 0 0 0 0 0 0 0 0 0 0 0 0 0 0 0z m-96 0c0 0 0 0 0 0 0 0 0 0 0 0 0 0 0 0 0 0 0 0 0 0 0 0z m-76-192c-3 10-4 21-4 32 0 7 1 13 2 20 9-3 19-6 31-9-1-4-1-7-1-11 0-53 43-96 96-96 53 0 96 43 96 96 0 4 0 8-1 12 11 2 22 5 31 9 1-7 2-14 2-21 0-11-1-22-4-32l71 0c7 0 13-6 13-13 0-2 0-4-1-6l-46-87c39-35 63-86 63-142l0-8c0-18-14-32-32-32l-144 0c0 0 0 0 0 0l-96 0c0 0 0 0 0 0l-144 0c-18 0-32 14-32 32l0 8c0 56 24 107 63 142l-45 87c-1 2-2 4-2 6 0 7 6 13 13 13z m235-32c-22-38-64-64-111-64-47 0-89 26-111 64l-52 0 31-59c6-13 4-29-7-38-33-30-53-72-53-119l0-8 123 0-26 92c-3 8 2 17 11 19 8 3 17-2 19-11l21-71 22 67-10 0c-9 0-16 7-16 16 0 9 7 16 16 16l64 0c9 0 16-7 16-16 0-9-7-16-16-16l-10 0 22-67 21 71c2 9 11 14 20 11 8-2 13-11 11-19l-27-92 123 0 0 8c0 47-20 89-53 119-10 9-13 25-6 38l30 59z m-131-224l40 0-20 61z m-60 296c10-2 21-4 32-5l0-9c0-7 6-13 13-13 5 0 10 4 12 9l3 10c7 0 13 0 20 0 7 0 13 0 20 0l3-10c2-5 7-9 12-9 7 0 13 6 13 13l0 9c11 1 22 3 32 5l0-14c0-25-20-45-45-45-14 0-27 7-35 18-8-11-21-18-35-18-25 0-45 20-45 45z"/>
<glyph glyph-name="volume" unicode="&#57360;" d="M171 304l99 89 0-274-99 89c-4 3-9 5-15 5l-78 0c-4 0-7 4-7 7l0 72c0 3 3 7 7 7l78 0c6 0 11 2 15 5z m115 151c-6 0-12-2-17-7l-121-107-70 0c-27 0-50-22-50-49l0-72c0-27 23-49 50-49l70 0 121-107c5-5 11-7 17-7 15 0 27 12 27 26l0 346c0 14-12 26-27 26z m163-67c-9 8-23 6-30-3-8-9-6-22 3-30 29-23 47-59 47-99 0-40-18-76-47-99-9-8-10-21-3-30 7-10 21-11 30-4 38 32 63 79 63 133 0 53-25 101-63 132z m-54-66c-9 8-22 6-30-3-7-9-6-22 3-30 10-8 16-20 16-33 0-13-6-25-16-33-9-8-10-21-3-30 8-9 21-11 30-3 19 15 32 39 32 66 0 27-13 51-32 66z"/>
<glyph glyph-name="share" unicode="&#57361;" d="M288 272l-96 0c-66 0-122-45-139-106-3 13-5 27-5 42 0 71 57 128 128 128l136 0c13 0 24 11 24 24l0 52 120-108-120-108 0 52c0 13-11 24-24 24z m0-48l0-64c0-13 7-24 19-29 12-5 25-3 34 5l160 144c7 6 11 15 11 24 0 9-4 18-11 24l-160 144c-9 8-22 10-34 5-11-5-19-16-19-29l0-64-112 0c-97 0-176-79-176-176 0-78 39-126 69-152 4-4 8-7 11-9 4-3 7-5 9-7 5-3 9-5 11-6 3-2 5-2 8-2 11 0 20 9 20 20 0 6-4 13-8 18-1 0-1 1-2 1-2 2-5 5-7 9-2 2-4 5-5 8-6 9-10 23-10 40 0 53 43 96 96 96l96 0z"/>
<glyph glyph-name="save" unicode="&#57362;" d="M80 416l0-320c0-9 7-16 16-16l320 0c9 0 16 7 16 16l0 245c0 5-2 9-5 12l34 34c12-12 19-29 19-46l0-245c0-35-29-64-64-64l-320 0c-35 0-64 29-64 64l0 320c0 35 29 64 64 64l246 0c17 0 33-7 45-19l74-74-34-34-74 74c0 1-1 1-1 1l0-100c0-13-11-24-24-24l-192 0c-13 0-24 11-24 24l0 104-16 0c-9 0-16-7-16-16z m80 16l0-80 144 0 0 80z m32-240c0 35 29 64 64 64 35 0 64-29 64-64 0-35-29-64-64-64-35 0-64 29-64 64z"/>
<glyph glyph-name="print" unicode="&#57363;" d="M112 352l0 96c0 9 7 16 16 16l230 0c4 0 8-2 11-5l26-26c3-3 5-7 5-12l0-69 48 0 0 69c0 17-7 34-19 46l-26 26c-12 12-28 19-45 19l-230 0c-35 0-64-29-64-64l0-96z m16-208l256 0 0-96-256 0z m-16 48c-18 0-32-14-32-32l-32 0 0 96c0 9 7 16 16 16l384 0c9 0 16-7 16-16l0-96-32 0c0 18-14 32-32 32z m320-80l48 0c18 0 32 14 32 32l0 112c0 35-29 64-64 64l-384 0c-35 0-64-29-64-64l0-112c0-18 14-32 32-32l48 0 0-80c0-18 14-32 32-32l288 0c18 0 32 14 32 32z"/>
<glyph glyph-name="file-signature" unicode="&#57364;" d="M284 57c16 0 29 13 29 28l0 10 21 5c3 1 5 2 7 2l0-17c0-31-25-57-57-57l-227 0c-31 0-57 26-57 57l0 342c0 31 26 57 57 57l139 0c11 0 22-5 30-13l103-103c8-8 12-19 12-30l0-35-28-29 0 39-100 0c-23 0-42 19-42 43l0 99-114 0c-16 0-29-13-29-28l0-342c0-15 13-28 29-28z m-71 284l99 0c0 3-1 5-3 7l-103 103c-2 2-4 3-7 4l0-99c0-8 7-15 14-15z m-85-168l-9-29c-5-18-22-30-41-30l-7 0c-8 0-14 6-14 14 0 8 6 14 14 14l7 0c7 0 12 4 14 10l13 44c3 10 13 17 23 17 10 0 20-7 23-17l11-37c6 7 16 12 25 12 13 0 24-8 30-19l5-10 37 0 14 56c2 7 6 14 11 20l137 136c17 17 44 17 60 0l16-15c16-17 16-44 0-61l-137-136c-5-6-12-9-20-11l-66-17c-2 0-4 0-6 0l-55 0c-5 0-10 3-12 8l-9 18c-1 1-3 2-5 2-1 0-3 0-4-2l-15-21c-3-4-9-6-14-5-5 1-10 5-11 10z m333 161c-5 6-14 6-20 0l-22-22 36-35 22 22c5 5 5 14 0 20z m-157-136c-1-2-3-4-3-7l-11-44 43 11c3 1 5 2 7 4l94 95-35 35z"/>
<glyph glyph-name="file-excel" unicode="&#57365;" d="M112 64l0 384c0 9 7 16 16 16l160 0 0-80c0-18 14-32 32-32l80 0 0-288c0-9-7-16-16-16l-256 0c-9 0-16 7-16 16z m16 448c-35 0-64-29-64-64l0-384c0-35 29-64 64-64l256 0c35 0 64 29 64 64l0 293c0 17-7 34-19 46l-90 90c-12 12-28 19-45 19z m91-233c-8 10-23 12-34 4-10-8-12-23-4-34l45-57-45-57c-8-11-6-26 4-34 11-8 26-6 34 4l37 48 37-48c8-10 23-12 34-4 10 8 12 23 4 34l-45 57 45 57c8 11 6 26-4 34-11 8-26 6-34-4l-37-48z"/>
<glyph glyph-name="clipboard" unicode="&#57367;" d="M344 448l40 0c35 0 64-29 64-64l0-320c0-35-29-64-64-64l-256 0c-35 0-64 29-64 64l0 320c0 35 29 64 64 64l50 0c7 36 39 64 78 64 39 0 71-28 78-64z m-216-48c-9 0-16-7-16-16l0-320c0-9 7-16 16-16l256 0c9 0 16 7 16 16l0 320c0 9-7 16-16 16l-16 0 0-24c0-13-11-24-24-24l-176 0c-13 0-24 11-24 24l0 24z m128 8c13 0 24 11 24 24 0 13-11 24-24 24-13 0-24-11-24-24 0-13 11-24 24-24z"/>
<glyph glyph-name="expand" unicode="&#57368;" d="M168 480c13 0 24-11 24-24 0-13-11-24-24-24l-88 0 0-88c0-13-11-24-24-24-13 0-24 11-24 24l0 112c0 13 11 24 24 24z m-136-312c0 13 11 24 24 24 13 0 24-11 24-24l0-88 88 0c13 0 24-11 24-24 0-13-11-24-24-24l-112 0c-13 0-24 11-24 24z m424 312c13 0 24-11 24-24l0-112c0-13-11-24-24-24-13 0-24 11-24 24l0 88-88 0c-13 0-24 11-24 24 0 13 11 24 24 24z m-24-312c0 13 11 24 24 24 13 0 24-11 24-24l0-112c0-13-11-24-24-24l-112 0c-13 0-24 11-24 24 0 13 11 24 24 24l88 0z"/>
<glyph glyph-name="trophy-regular" unicode="&#57369;" d="M221 208c-24 27-58 90-64 233l198 0c-6-143-40-206-64-233-12-13-23-19-29-21-3-1-5-1-6-2-1 0-3 1-5 2-7 2-18 8-30 21z m135 276l-200 0c-23 0-42-20-41-43 0-5 0-10 0-14l-94 0c-11 0-21-10-21-22 0-96 41-158 90-196 48-37 103-51 133-56 4-3 8-4 12-6l0-76-71 0c-12 0-22-9-22-21 0-12 10-22 22-22l184 0c12 0 22 10 22 22 0 12-10 21-22 21l-71 0 0 76c4 2 8 3 12 6 30 5 85 19 133 56 49 38 90 100 90 196 0 12-10 22-21 22l-94 0c0 4 0 9 0 14 1 23-18 43-41 43z m38-100l75 0c-6-70-37-113-73-141-16-12-33-21-49-28 21 35 38 89 47 169z m-229-169c-16 7-33 16-49 28-36 28-67 71-73 141l75 0c9-80 26-134 47-169z"/>
<glyph glyph-name="undo-alt" unicode="&#57358;" d="M141 389c31 27 71 43 115 43 97 0 176-79 176-176 0-97-79-176-176-176-40 0-76 13-106 35-10 8-25 6-33-5-8-10-6-25 5-33 37-28 84-45 134-45 124 0 224 100 224 224 0 124-100 224-224 224-57 0-110-22-149-57l-31 31c-6 6-15 10-25 10-19 0-35-16-35-35l0-117c0-13 11-24 24-24l117 0c19 0 35 16 35 35 0 10-4 19-10 25l-41 41z m-77 9l62-62-62 0z"/>
<glyph glyph-name="at" unicode="&#76;" d="M256 464c-115 0-208-93-208-208 0-115 93-208 208-208 13 0 24-11 24-24 0-13-11-24-24-24-141 0-256 115-256 256 0 141 115 256 256 256 141 0 256-115 256-256l0-28c0-51-41-92-92-92-31 0-59 15-75 39-22-24-54-39-89-39-66 0-120 54-120 120 0 66 54 120 120 120 29 0 55-10 76-27 4 7 12 11 20 11 13 0 24-11 24-24l0-108c0-24 20-44 44-44 24 0 44 20 44 44l0 28c0 115-93 208-208 208z m72-208c0 40-32 72-72 72-40 0-72-32-72-72 0-40 32-72 72-72 40 0 72 32 72 72z"/>
<glyph glyph-name="hexagon-xmark" unicode="&#57370;" d="M17 220c-13 22-13 50 0 72l88 153c13 22 37 36 63 36l176 0c26 0 50-14 63-36l88-153c13-22 13-50 0-72l-88-153c-13-22-37-36-63-36l-176 0c-26 0-50 14-63 36z m42 48c-5-7-5-17 0-24l88-153c4-7 12-12 21-12l176 0c9 0 17 5 21 12l88 153c5 7 5 17 0 24l-88 153c-4 7-12 12-21 12l-176 0c-9 0-17-5-21-12l-88-153z m116 69c9 9 25 9 34 0l47-47 47 47c9 9 25 9 34 0 9-9 9-25 0-34l-47-47 47-47c9-9 9-25 0-34-10-9-25-9-34 0l-47 47-47-47c-9-9-25-9-34 0-9 10-9 25 0 34l47 47-47 47c-9 9-9 25 0 34z"/>
<glyph glyph-name="heart-alt" unicode="&#57371;" d="M48 212l180-169c8-7 18-11 28-11 10 0 20 4 28 11l180 169c31 28 48 68 48 109l0 6c0 70-50 129-119 141-46 7-92-7-125-40l-12-12-12 12c-33 33-79 47-125 40-68-12-119-71-119-141l0-6c0-41 17-81 48-109z"/>
<glyph glyph-name="phone" unicode="&#57372;" d="M376 237c-17 7-36 2-47-12l-33-40c-46 26-84 65-111 111l40 33c14 11 19 30 12 47l-48 112c-8 17-27 27-45 23l-112-24c-19-4-32-20-32-39 0-231 175-422 400-446 10-1 20-1 30-2 0 0 0 0 0 0 6 0 12 0 18 0 19 0 35 13 39 31l24 112c4 19-6 38-23 46l-112 48z m66-189c-216 3-390 178-394 393l99 22 43-101-36-29c-18-15-22-41-11-61 31-54 76-98 129-129 20-12 46-7 61 11l30 36 100-43z m-394 400l0 0"/>
<glyph glyph-name="play-circle-alt" unicode="&#57373;" d="M464 256c0 115-93 208-208 208-115 0-208-93-208-208 0-115 93-208 208-208 115 0 208 93 208 208z m-464 0c0 141 115 256 256 256 141 0 256-115 256-256 0-141-115-256-256-256-141 0-256 115-256 256z m188 109c8 4 17 4 25-1l144-88c7-4 11-12 11-20 0-9-4-16-11-21l-144-88c-8-4-17-4-25 0-7 4-12 12-12 21l0 176c0 9 5 17 12 21z"/>
<glyph glyph-name="stop" unicode="&#57374;" d="M64 384c0 35 29 64 64 64l256 0c35 0 64-29 64-64l0-256c0-35-29-64-64-64l-256 0c-35 0-64 29-64 64z"/>
<glyph glyph-name="times-octagon" unicode="&#57375;" d="M192 464c-7 0-13-3-17-7l-120-120c-4-4-7-10-7-17l0-129c0-6 3-12 7-17l-34-33c-13 13-21 31-21 50l0 129c0 20 8 38 21 51l120 120c13 13 31 21 51 21l129 0c19 0 37-8 50-21l120-120c13-13 21-31 21-51l0-129c0-19-8-37-21-50l-120-120c-13-13-31-21-50-21l-129 0c-20 0-38 8-51 21l-120 120 34 33 120-119c4-4 10-7 17-7l129 0c6 0 12 3 17 7l119 119c4 5 7 11 7 17l0 129c0 7-3 13-7 17l-119 120c-5 4-11 7-17 7z m-17-127c9 9 25 9 34 0l47-47 47 47c9 9 25 9 34 0 9-9 9-25 0-34l-47-47 47-47c9-9 9-25 0-34-10-9-25-9-34 0l-47 47-47-47c-9-9-25-9-34 0-9 10-9 25 0 34l47 47-47 47c-9 9-9 25 0 34z"/>
<glyph glyph-name="volume-mute" unicode="&#57376;" d="M142 304l100 89 0-274-100 89c-4 3-9 5-14 5l-78 0c-4 0-7 4-7 7l0 72c0 3 3 7 7 7l78 0c5 0 10 2 14 5z m116 151c-7 0-13-2-18-7l-120-107-70 0c-28 0-50-22-50-49l0-72c0-27 22-49 50-49l70 0 120-107c5-5 11-7 18-7 15 0 26 12 26 26l0 346c0 14-11 26-26 26z m120-120c-9 8-22 8-30 0-9-8-9-22 0-30l49-49-49-49c-9-8-9-22 0-30 8-8 22-8 30 0l49 49 49-49c8-8 21-8 30 0 8 8 8 22 0 30l-49 49 49 49c8 8 8 22 0 30-9 8-22 8-30 0l-49-49z"/>
<glyph glyph-name="info-circle" unicode="&#57377;" d="M256 464c115 0 208-93 208-208 0-115-93-208-208-208-115 0-208 93-208 208 0 115 93 208 208 208z m0-464c141 0 256 115 256 256 0 141-115 256-256 256-141 0-256-115-256-256 0-141 115-256 256-256z m-40 176c-13 0-24-11-24-24 0-13 11-24 24-24l80 0c13 0 24 11 24 24 0 13-11 24-24 24l-8 0 0 88c0 13-11 24-24 24l-48 0c-13 0-24-11-24-24 0-13 11-24 24-24l24 0 0-64z m40 144c18 0 32 14 32 32 0 18-14 32-32 32-18 0-32-14-32-32 0-18 14-32 32-32z"/>
<glyph glyph-name="tacometer-alt" unicode="&#57378;" d="M256 48c115 0 208 93 208 208 0 115-93 208-208 208-115 0-208-93-208-208 0-115 93-208 208-208z m0 464c141 0 256-115 256-256 0-141-115-256-256-256-141 0-256 115-256 256 0 141 115 256 256 256z m32-112c0-18-14-32-32-32-18 0-32 14-32 32 0 18 14 32 32 32 18 0 32-14 32-32z m-32-296c-31 0-56 25-56 56 0 31 25 56 56 56 10 0 20-3 28-8l110 76c11 7 26 4 34-7 7-11 5-25-6-33l-111-75c1-3 1-6 1-9 0-31-25-56-56-56z m128 248c0-18-14-32-32-32-18 0-32 14-32 32 0 18 14 32 32 32 18 0 32-14 32-32z m-272-64c18 0 32-14 32-32 0-18-14-32-32-32-18 0-32 14-32 32 0 18 14 32 32 32z m80 64c0-18-14-32-32-32-18 0-32 14-32 32 0 18 14 32 32 32 18 0 32-14 32-32z"/>
<glyph glyph-name="external-link-alt" unicode="&#83;" d="M304 488c0-13 11-24 24-24l102 0-223-223c-9-9-9-25 0-34 9-9 25-9 34 0l223 223 0-102c0-13 11-24 24-24 13 0 24 11 24 24l0 160c0 13-11 24-24 24l-160 0c-13 0-24-11-24-24z m-232-8c-40 0-72-32-72-72l0-336c0-40 32-72 72-72l336 0c40 0 72 32 72 72l0 128c0 13-11 24-24 24-13 0-24-11-24-24l0-128c0-13-11-24-24-24l-336 0c-13 0-24 11-24 24l0 336c0 13 11 24 24 24l128 0c13 0 24 11 24 24 0 13-11 24-24 24z"/>
<glyph glyph-name="download" unicode="&#57366;" d="M272 496c0 9-7 16-16 16-9 0-16-7-16-16l0-313-101 100c-6 6-16 6-22 0-6-6-6-16 0-22l128-128c6-7 16-7 22 0l128 128c7 6 7 16 0 22-6 6-16 6-22 0l-101-100z m-132-304l-76 0c-35 0-64-29-64-64l0-64c0-35 29-64 64-64l384 0c35 0 64 29 64 64l0 64c0 35-29 64-64 64l-76 0-32-32 108 0c18 0 32-14 32-32l0-64c0-18-14-32-32-32l-384 0c-18 0-32 14-32 32l0 64c0 18 14 32 32 32l108 0z m292-96c0 13-11 24-24 24-13 0-24-11-24-24 0-13 11-24 24-24 13 0 24 11 24 24z"/>
<glyph glyph-name="reddit" unicode="&#57380;" d="M202 206c-14 0-25 12-25 25 0 14 11 25 25 25 13 0 24-11 24-25 0-14-11-25-24-25z m302 50c0-137-111-248-248-248-137 0-248 111-248 248 0 137 111 248 248 248 137 0 248-111 248-248z m-132 41c-10 0-18-4-24-10-22 16-53 26-86 27l17 78 56-12c0-14 11-25 24-25 14 0 25 11 25 25 0 13-11 25-25 25-9 0-18-6-22-14l-61 14c-3 0-6-2-7-5l-19-86c-33-2-63-12-86-27-6 6-14 10-24 10-35 0-46-47-14-63-1-5-2-10-2-15 0-53 59-95 132-95 73 0 133 42 133 95 0 5-1 11-2 16 31 16 19 62-15 62z m-69-116c-18-18-76-18-94 0-2 2-6 2-8 0-3-3-3-6 0-9 23-22 87-22 110 0 3 3 3 6 0 9-2 2-6 2-8 0z m8 75c-14 0-25-11-25-25 0-14 11-25 25-25 13 0 24 12 24 25 0 14-11 25-24 25z"/>
<glyph glyph-name="threads" unicode="&#57381;" d="M364 276c2-1 4-2 6-3 29-14 50-35 62-61 15-36 17-96-31-143-36-36-80-53-142-53l-1 0c-70 0-124 24-160 70-32 41-49 98-49 170l0 0c0 72 17 129 49 170 36 46 90 69 160 70l1 0c70-1 125-24 162-70 18-23 32-50 41-82l-41-10c-7 25-18 47-32 65-29 36-73 54-130 55-57-1-101-19-129-55-26-33-39-81-40-143 1-62 14-110 40-143 28-36 72-54 129-55 51 1 85 13 113 41 33 32 32 72 22 96-6 14-17 26-32 35-4-27-12-48-25-65-17-22-41-33-73-35-23-1-46 4-64 16-20 14-33 35-34 59-2 48 36 83 95 87 21 1 41 0 60-3-3 15-8 26-15 35-10 12-26 18-46 18l-1 0c-17 0-39-5-53-27l-35 24c20 29 51 45 88 45l1 0c63 0 100-39 104-108l-1 0z m-156-69c1-25 28-36 54-35 26 2 55 12 60 73-14 3-28 5-44 5-5 0-9 0-14-1-43-2-57-23-56-41z"/>
<glyph glyph-name="twitch" unicode="&#57382;" d="M391 409l-38 0 0-110 38 0z m-106 0l-39 0 0-110 39 0z m-164 103l-97-91 0-330 116 0 0-91 97 91 77 0 174 165 0 256z m328-238l-77-73-77 0-68-64 0 64-87 0 0 274 309 0z"/>
<glyph glyph-name="crown" unicode="&#57379;" d="M275 389c10 7 17 18 17 31 0 19-16 35-36 35-20 0-36-16-36-35 0-13 7-24 17-31l-51-102c-8-16-29-20-43-9l-79 63c4 6 7 14 7 22 0 19-16 35-35 35-20 0-36-16-36-35 0-20 16-36 36-36l0 0 41-223c5-27 28-47 56-47l246 0c28 0 51 20 56 47l41 223c0 0 0 0 0 0 20 0 36 16 36 36 0 19-16 35-36 35-19 0-35-16-35-35 0-8 3-16 7-22l-79-63c-14-11-35-7-43 9z m-170-280l-35 191 55-44c29-23 71-14 87 19l44 88 44-88c16-33 58-42 87-19l55 44-35-191c-2-14-14-24-28-24l-246 0c-14 0-26 10-28 24z"/>
<glyph glyph-name="eye-alt" unicode="&#57383;" d="M104 363c38 35 89 64 152 64 63 0 114-29 152-64 38-36 64-79 76-107-12-28-38-71-76-107-38-35-89-64-152-64-63 0-114 29-152 64-38 36-64 79-76 107 12 28 38 71 76 107z m152 92c-72 0-129-33-171-72-42-38-70-84-83-116-3-7-3-15 0-22 13-32 41-78 83-116 42-39 99-72 171-72 72 0 129 33 171 72 42 38 70 84 83 116 3 7 3 15 0 22-13 32-41 78-83 116-42 39-99 72-171 72z m-85-199c0 47 38 85 85 85 47 0 85-38 85-85 0-47-38-85-85-85-47 0-85 38-85 85z m199 0c0 63-51 114-114 114-63 0-114-51-114-114 0-63 51-114 114-114 63 0 114 51 114 114z"/>
<glyph glyph-name="magnifying-glass" unicode="&#57384;" d="M368 304c0 88-72 160-160 160-88 0-160-72-160-160 0-88 72-160 160-160 88 0 160 72 160 160z m-31-163c-35-28-80-45-129-45-115 0-208 93-208 208 0 115 93 208 208 208 115 0 208-93 208-208 0-49-17-94-45-129l134-134c9-9 9-25 0-34-9-9-25-9-34 0z"/>
<glyph glyph-name="paste" unicode="&#57385;" d="M80 416l0-16c0-18 14-32 32-32l61 0c16 29 47 48 83 48l62 0c-7 28-32 48-62 48l-41 0c-3 27-27 48-55 48-28 0-52-21-55-48l-41 0c-35 0-64-29-64-64l0-272c0-35 29-64 64-64l96 0 0 48-96 0c-9 0-16 7-16 16l0 272c0 9 7 16 16 16z m64 40c0 9 7 16 16 16 9 0 16-7 16-16 0-9-7-16-16-16-9 0-16 7-16 16z m112-408c-9 0-16 7-16 16l0 256c0 9 7 16 16 16l128 0 0-48c0-18 14-32 32-32l48 0 0-192c0-9-7-16-16-16z m192-48c35 0 64 29 64 64l0 220c0 13-5 25-14 34l-52 52c-9 9-21 14-34 14l-156 0c-35 0-64-29-64-64l0-256c0-35 29-64 64-64z"/>
<glyph glyph-name="ticket" unicode="&#57386;" d="M57 427c-31 0-57-26-57-57l0-54c0-9 6-17 14-20 17-6 29-21 29-40 0-19-12-34-29-40-8-3-14-11-14-20l0-54c0-31 26-57 57-57l398 0c31 0 57 26 57 57l0 54c0 9-6 17-14 20-17 6-29 21-29 40 0 19 12 34 29 40 8 3 14 11 14 20l0 54c0 31-26 57-57 57z m-14-57c0 8 6 14 14 14l398 0c8 0 14-6 14-14l0-40c-25-15-42-42-42-74 0-32 17-59 42-74l0-40c0-8-6-14-14-14l-398 0c-8 0-14 6-14 14l0 40c25 15 42 42 42 74 0 32-17 59-42 74z m313-157l-200 0 0 86 200 0z m-242 100l0-114c0-16 12-28 28-28l228 0c16 0 28 12 28 28l0 114c0 16-12 28-28 28l-228 0c-16 0-28-12-28-28z"/>
<glyph glyph-name="chart-line" unicode="&#57387;" d="M48 456c0 13-11 24-24 24-13 0-24-11-24-24l0-352c0-40 32-72 72-72l416 0c13 0 24 11 24 24 0 13-11 24-24 24l-416 0c-13 0-24 11-24 24z m425-113c9 9 9 25 0 34-9 9-25 9-34 0l-119-119-79 79c-4 4-10 7-17 7-6 0-12-3-17-7l-96-96c-9-10-9-25 0-34 10-9 25-9 34 0l79 79 79-79c9-9 25-9 34 0z"/>
<glyph glyph-name="slot-machine" unicode="&#57388;" d="M320 128l-230 0 0-26c0-7 5-12 12-12l205 0c7 0 13 5 13 12z m38-26c0-4 0-8-1-12l65 0c18 0 32 14 32 32l0 165c-11 6-19 19-19 33 0 21 17 38 39 38 21 0 38-17 38-38 0-14-8-27-19-33l0-165c0-39-32-71-71-71l-320 0c-28 0-51 23-51 51l0 26c-28 0-51 23-51 51l0 154c0 28 23 51 51 51l0 26c0 28 23 51 51 51l205 0c28 0 51-23 51-51l0-26c29 0 52-23 52-51l0-154c0-28-23-51-52-51z m-38 282l0 26c0 7-6 12-13 12l-205 0c-7 0-12-5-12-12l0-26z m38-38l-307 0c-7 0-13-6-13-13l0-154c0-7 6-13 13-13l307 0c7 0 13 6 13 13l0 154c0 7-6 13-13 13z m-268-26l44 0c7 0 12-3 16-8 4-5 5-12 2-18l-32-89c-3-10-14-15-24-12-10 4-15 15-12 25l23 64-17 0c-11 0-20 8-20 19 0 10 9 19 20 19z m76-19c0 10 9 19 20 19l44 0c7 0 12-3 16-8 4-5 5-12 2-18l-32-89c-3-10-14-15-24-12-10 4-15 15-12 25l23 64-17 0c-11 0-20 8-20 19z m116 19l44 0c7 0 12-3 16-8 4-5 5-12 2-18l-32-89c-3-10-14-15-24-12-10 4-15 15-12 25l23 64-17 0c-11 0-20 8-20 19 0 10 9 19 20 19z"/>
<glyph glyph-name="eye-slash" unicode="&#57389;" d="M31 457c-8 6-20 5-27-4-6-8-5-20 3-27l474-371c8-6 20-5 27 4 6 8 5 20-3 27l-85 65c32 33 54 69 64 95 3 6 3 14 0 20-12 28-37 70-74 105-38 35-89 64-154 64-55 0-100-21-135-48z m147-116c21 19 48 30 78 30 64 0 115-51 115-115 0-20-5-39-14-55l-31 24c7 16 9 33 4 51-9 33-38 55-71 57-4 0-7-5-6-10 2-5 3-10 3-16 0-8-2-16-5-23l-72 57z m120-192c-13-5-27-8-42-8-64 0-115 51-115 115 0 6 0 11 1 16l-76 60c-18-24-31-48-38-66-3-6-3-14 0-20 12-28 37-70 74-105 38-35 89-64 154-64 38 0 72 10 101 26z"/>
<glyph glyph-name="code" unicode="&#57390;" d="M319 460c-10 3-21-3-24-13l-115-371c-3-10 3-21 13-24 10-3 21 3 24 13l115 371c3 10-3 21-13 24z m57-95c-7-8-6-20 1-27l88-82-88-82c-7-7-8-19-1-27 8-8 20-8 28-1l102 96c4 4 6 9 6 14 0 5-2 10-6 14l-102 96c-8 7-20 7-28-1z m-240 0c-8 8-20 8-28 1l-102-96c-4-4-6-9-6-14 0-5 2-10 6-14l102-96c8-7 20-7 28 1 7 8 6 20-1 27l-88 82 88 82c7 7 8 19 1 27z"/>
<glyph glyph-name="file-download" unicode="&#57391;" d="M112 64l0 384c0 9 7 16 16 16l160 0 0-80c0-18 14-32 32-32l80 0 0-288c0-9-7-16-16-16l-256 0c-9 0-16 7-16 16z m16 448c-35 0-64-29-64-64l0-384c0-35 29-64 64-64l256 0c35 0 64 29 64 64l0 293c0 17-7 34-19 46l-90 90c-12 12-28 19-45 19z m152-232c0 13-11 24-24 24-13 0-24-11-24-24l0-102-31 31c-9 9-25 9-34 0-9-10-9-25 0-34l72-72c10-9 25-9 34 0l72 72c9 9 9 25 0 34-9 9-25 9-34 0l-31-31 0 102z"/>
<glyph glyph-name="share-all" unicode="&#57392;" d="M327 418c-9 8-9 22-1 30 8 9 21 9 30 1l126-119c18-17 18-45 0-62l-126-120c-9-8-22-8-30 1-8 8-8 22 1 30l126 120z m-128-148l21 0c12 0 22-9 22-21l0-46 107 96-107 96 0-47c0-11-10-21-22-21l-64 0c-62 0-113-51-113-114 0-13 1-26 4-37 15 54 65 94 124 94z m0-85l0 43-28 0c-5 0-10-1-15-2-40-6-71-41-71-84 0-15 4-27 9-36 1-2 3-4 4-7 3-3 5-5 7-7 1-1 1-1 1-1 5-5 8-10 8-17 0-9-8-17-18-17-2 0-5 1-7 2-2 1-6 3-10 5-2 2-5 4-8 6-3 2-6 5-10 8-27 23-61 66-61 135 0 87 70 157 156 157l43 0 0 57c0 11 7 21 17 26 10 4 22 2 31-5l142-128c6-6 9-13 9-21 0-8-3-16-9-21l-142-128c-9-8-21-10-31-5-10 4-17 14-17 26z"/>
<glyph glyph-name="sort-alpha-up" unicode="&#57393;" d="M313 455l114 0c8 0 16-5 19-13 4-7 2-16-3-22l-83-93 67 0c11 0 21-9 21-21 0-12-10-22-21-22l-114 0c-8 0-16 5-20 13-3 8-2 17 4 23l82 92-66 0c-12 0-21 10-21 22 0 12 9 21 21 21z m-186-6c8 8 22 8 30 0l86-85c8-9 8-22 0-31-9-8-22-8-31 0l-48 49 0-304c0-12-10-21-22-21-12 0-21 9-21 21l0 304-49-49c-8-8-22-8-30 0-8 9-8 22 0 30l85 86z m243-207c8 0 15-5 19-12l71-142c5-11 1-24-10-29-10-5-23-1-28 10l-12 24c-2 0-3-1-5-1l-75 0-12-23c-6-11-18-15-29-10-11 5-15 18-9 29l71 142c3 7 11 12 19 12z m-19-107l38 0-19 38z"/>
<glyph glyph-name="sort-alpha-down" unicode="&#57394;" d="M42 148l85-85c8-8 22-8 30 0l86 85c8 9 8 22 0 31-9 8-22 8-31 0l-48-49 0 304c0 12-10 21-22 21-12 0-21-9-21-21l0-304-49 49c-8 8-22 8-30 0-8-9-8-22 0-30z m271 80c-12 0-21-10-21-22 0-12 9-21 21-21l66 0-82-93c-6-6-7-15-4-23 4-7 12-12 20-12l114 0c11 0 21 9 21 21 0 12-10 22-21 22l-67 0 83 92c5 6 7 15 3 23-3 8-11 13-19 13z m57 227c-8 0-16-4-19-12l-71-142c-6-11-1-23 9-29 11-5 23-1 29 10l12 24 75 0c2 0 3 0 5 0l12-24c5-11 18-15 28-9 11 5 15 18 10 28l-71 142c-4 8-11 12-19 12z m-19-107l19 38 19-38z"/>
<glyph glyph-name="circle" unicode="&#69;" d="M256 0c141 0 256 115 256 256 0 141-115 256-256 256-141 0-256-115-256-256 0-141 115-256 256-256z"/>
<glyph glyph-name="signal-stream" unicode="&#57395;" d="M89 422c9-8 10-21 3-30-31-37-49-84-49-136 0-52 18-99 49-136 7-9 6-22-3-30-9-7-23-6-30 3-37 44-59 101-59 163 0 62 22 119 59 163 7 9 21 10 30 3z m334 0c9 7 23 6 30-3 37-44 59-101 59-163 0-62-22-119-59-163-7-9-21-10-30-3-9 8-10 21-2 30 30 37 48 84 48 136 0 52-18 99-48 136-8 9-7 22 2 30z m-203-166c0 20 16 36 36 36 20 0 36-16 36-36 0-20-16-36-36-36-20 0-36 16-36 36z m-54 70c-15-20-24-44-24-70 0-26 9-50 24-70 7-9 6-22-4-30-9-7-22-5-30 4-20 26-32 60-32 96 0 36 12 70 32 96 8 9 21 11 30 4 10-7 11-21 4-30z m214 26c20-26 32-60 32-96 0-36-12-70-32-96-8-9-21-11-30-4-10 7-11 21-4 30 15 20 24 44 24 70 0 26-9 50-24 70-7 9-6 22 4 30 9 7 22 5 30-4z"/>
<glyph glyph-name="envelope-open" unicode="&#57396;" d="M255 464c1 0 1 0 1 0 0 0 0 0 1 0l204-146c2-2 3-4 3-7l0-13-172-142c-21-17-51-17-72 0l-172 142 0 13c0 3 1 5 3 7z m-207-228l142-117c38-31 94-31 132 0l142 117 0-180c0-4-4-8-8-8l-400 0c-4 0-8 4-8 8z m208 276c-10 0-20-3-28-9l-204-146c-15-10-24-27-24-46l0-255c0-31 25-56 56-56l400 0c31 0 56 25 56 56l0 255c0 19-9 36-23 46l-204 146c-9 6-19 9-29 9z"/>
<glyph glyph-name="face-head-bandage" unicode="&#57397;" d="M63 169c6 9 12 17 19 25 25-72 94-123 174-123 102 0 185 83 185 185 0 12-1 23-3 34 10-2 21-5 31-8l13-4c1-7 1-15 1-22 0-126-101-228-227-228-89 0-165 51-203 125 2 3 4 6 6 9 2 3 3 5 4 7z m131 128c12-3 20-14 20-27 0-16-13-28-29-28-15 0-28 12-28 28 12 10 24 19 37 27z m133 175c-40-8-78-20-115-36-12-3-24-8-35-13-30-3-59-7-88-13 41 45 101 74 167 74 25 0 49-4 71-12z m0-340c-14 13-35 24-64 24-11 0-21-1-29-4-11-3-23 3-27 14-3 11 3 23 14 27 13 4 27 6 42 6 41 0 72-17 93-35 8-8 9-22 1-30-8-9-21-10-30-2z m-28 138c0 16 13 29 28 29 16 0 29-13 29-29 0-15-13-28-29-28-15 0-28 13-28 28z m-32 157c34 11 70 19 106 24 19-11 36-25 50-41-50 10-102 16-156 17z m94-35c30-4 60-10 89-17 12-20 22-42 27-66-70 21-144 32-221 32-15 0-30 0-45-1-43-2-84-8-125-18-17-3-34-8-51-13 5 24 15 46 27 66 43 11 87 18 133 21 20 2 40 2 61 2 36 0 70-2 105-6z m-316-110c36 11 74 19 112 24-46-33-86-74-117-121-8 22-12 46-12 71 0 3 1 5 1 8 5 6 10 12 16 18z"/>
<glyph glyph-name="ban" unicode="&#57398;" d="M385 93l-292 292c-28-35-45-80-45-129 0-115 93-208 208-208 49 0 94 17 129 45z m34 34c28 35 45 80 45 129 0 115-93 208-208 208-49 0-94-17-129-45l292-292z m-419 129c0 141 115 256 256 256 141 0 256-115 256-256 0-141-115-256-256-256-141 0-256 115-256 256z"/>
<glyph glyph-name="amazon" unicode="&#57399;" d="M289 349c-48-2-169-15-169-117 0-110 138-114 183-43 7-11 36-38 46-47l56 56c0 0-32 25-32 53l0 147c0 25-24 82-112 82-88 0-135-55-135-104l74-7c16 49 54 49 54 49 40 0 35-29 35-69z m0-87c0-80-84-68-84-17 0 47 51 57 84 58z m136-163c-7-10-70-67-174-67-105 0-185 71-209 101-7 8 1 11 5 8 74-44 188-118 373-30 7 4 13-2 5-12z m40-2c-6-16-16-27-21-31-6-5-10-3-7 4 3 6 20 46 13 55-6 8-37 4-48 3-11-1-13-2-14 0-2 6 22 16 38 18 15 1 41 0 46-6 3-5 0-27-7-43z"/>
</font>
</defs>
</svg>
